<svg xmlns="http://www.w3.org/2000/svg" id="svg" width="300" height="260.188" version="1.1" viewBox="0 0 300 260.188"><g xmlns="http://www.w3.org/2000/svg" id="svg" fill="#000" fill-rule="evenodd" stroke="none" stroke-dashoffset="0" stroke-linecap="butt" stroke-linejoin="miter" stroke-miterlimit="10" stroke-width="1" font-family="none" font-size="none" font-weight="none" text-anchor="none" style="mix-blend-mode:normal"><path d="M139.80338,0.86117c-12.25029,2.77528 -24.57811,11.41273 -31.60775,22.1459c-6.95429,10.61833 -8.46043,19.46718 -6.68144,39.25403c1.60928,17.90472 1.37081,23.57012 -0.83683,19.89145c-0.45572,-0.75929 -1.8792,-2.94498 -3.1637,-4.85783c-1.28377,-1.91285 -2.1067,-3.73134 -1.82873,-4.04076c0.2787,-0.30942 0.09509,-0.32551 -0.40817,-0.03584c-1.01458,0.58373 -1.14405,4.11318 -0.42792,11.69582l0.47547,5.03851l1.36496,-2.66117c0.75124,-1.46371 1.80386,-2.66117 2.33931,-2.66117c1.18721,0 1.9048,6.54831 1.91212,17.45119c0.00439,6.8987 -0.10972,7.53656 -1.27499,7.13058c-1.00434,-0.34965 -0.95021,-0.16385 0.25236,0.8617c1.31449,1.12064 1.59319,2.39856 1.95308,8.96223c0.35697,6.51247 1.21647,12.11569 3.10957,20.27329c0.24139,1.04091 0.04096,1.64878 -0.54642,1.65317c-1.99843,0.01536 -8.39972,3.60845 -11.3586,6.37641c-2.68018,2.50609 -3.84106,3.03349 -8.30243,3.77011c-9.16925,1.51419 -12.7894,4.60693 -12.11789,10.3528l0.38769,3.31731l-4.45844,2.16887c-5.7049,2.77601 -7.62726,5.20456 -6.55416,8.28195c0.89535,2.56827 1.63781,2.1835 -14.48353,7.5051c-11.78725,3.8908 -21.92938,8.36314 -27.96126,12.32856l-4.79639,3.15346l-4.07806,10.80705c-2.24275,5.9441 -5.57031,16.23618 -7.39465,22.87154c-3.01009,10.94896 -3.31658,12.81354 -3.31658,20.17819v8.11443h59.25081c32.58794,0 59.27202,-0.24651 59.29835,-0.54862c0.02633,-0.30211 0.14191,-3.18199 0.25602,-6.40055c1.11918,-31.42341 1.41251,-37.43554 1.8653,-38.28553c0.41768,-0.78343 0.77831,-0.72418 1.8002,0.29845c1.15649,1.15649 1.22891,2.40149 0.76002,13.04908c-0.28455,6.47443 -0.64006,12.4295 -0.78928,13.23414c-0.14996,0.80464 -0.31015,4.0115 -0.35624,7.12619c-0.04682,3.11469 -0.37818,5.4818 -0.73661,5.26015c-0.35916,-0.22164 -0.65249,-0.05413 -0.65249,0.3716c0,0.42573 0.32917,0.77465 0.73149,0.77465c1.26329,0 0.7944,2.07085 -0.54862,2.42197c-1.2194,0.3182 -1.2194,0.33868 0,0.41914c0.70443,0.04682 1.28011,0.58227 1.28011,1.19014c0,0.97142 3.60406,1.08261 29.68758,0.91436l29.68758,-0.19092l0.13971,-19.92583c0.12509,-17.80377 0.27504,-20.06115 1.40593,-21.19277c1.20111,-1.20038 1.25817,-1.15356 1.10967,0.90778c-0.08705,1.19526 -0.50034,2.41538 -0.92022,2.71091c-0.50473,0.3555 -0.46962,0.5413 0.10387,0.54862c0.49595,0.00585 0.73954,0.7132 0.56983,1.65683c-0.32917,1.82946 -1.19818,20.76558 -1.03213,22.49336c0.05779,0.60348 0.2136,3.40144 0.34526,6.21768c0.1324,2.81624 0.2648,5.53227 0.29406,6.0348c0.04316,0.72345 12.21006,0.91436 58.25232,0.91436h58.19746l-0.24651,-19.20165l-0.24578,-19.20165l-2.67068,-7.31491c-4.31287,-11.81505 -6.49857,-16.63997 -8.16344,-18.01663c-2.72261,-2.25226 -16.65825,-9.16486 -23.87369,-11.84211c-3.82204,-1.41836 -10.65344,-3.82863 -15.18137,-5.35598l-8.23294,-2.77674l0.45572,-2.42928c0.54642,-2.91207 -0.58227,-4.39553 -5.49423,-7.22128c-5.83803,-3.35828 -6.03919,-3.65453 -4.38163,-6.46346c1.18867,-2.01526 1.28304,-2.72919 0.5691,-4.29751c-1.41836,-3.1125 -7.77722,-5.52569 -17.57042,-6.66828c-3.01301,-0.35112 -4.56597,-0.95752 -5.78975,-2.26031c-1.72339,-1.83458 -8.42898,-4.72031 -10.96798,-4.72031c-1.76875,0 -1.79215,0.40598 0.34819,-6.14965c1.86311,-5.70856 3.33706,-14.4294 3.33706,-19.74881c0,-2.75041 0.33941,-3.38973 2.89451,-5.4423c2.50902,-2.01672 3.19735,-3.27123 5.16726,-9.42088c1.93699,-6.04724 2.32687,-8.55699 2.63922,-16.9984c0.41329,-11.17792 -0.16678,-13.39507 -3.60698,-13.79373c-1.16234,-0.13459 -3.38388,0.53106 -5.24699,1.57198c-2.47098,1.38106 -3.07885,1.52223 -2.58509,0.59909c0.7805,-1.46079 2.20472,-16.29397 2.19155,-22.82838c-0.01463,-7.26298 -2.48341,-17.84693 -5.62078,-24.09606c-3.22076,-6.41664 -12.07473,-15.75706 -18.53087,-19.5513c-7.97545,-4.68593 -13.88956,-6.23523 -24.84876,-6.50881c-6.78897,-0.16971 -11.33373,0.08339 -14.54132,0.81049M143.90777,8.74153c-0.19385,0.50546 0.10021,1.34082 0.65322,1.85799c0.83171,0.77611 1.0058,0.68394 1.0058,-0.5296c0,-1.91139 1.85506,-1.25743 2.59167,0.9129c0.50985,1.50468 0.55813,1.48054 0.85219,-0.41622c0.17044,-1.10675 0.65322,-2.0116 1.07163,-2.0116c0.41914,0 0.56544,0.51058 0.32551,1.13527c-0.2392,0.62469 -0.14045,0.95313 0.21945,0.73076c0.36063,-0.2231 0.50327,0.17409 0.3182,0.88218c-0.26334,1.00873 0.14703,1.30718 1.89749,1.37886c1.73144,0.07022 2.23324,-0.21798 2.23324,-1.28669c0,-1.53174 1.09212,-1.83824 1.89822,-0.53253c0.32405,0.52302 0.20116,0.64591 -0.32186,0.32186c-0.49303,-0.3043 -0.84487,-0.07169 -0.84487,0.55886c0,0.5947 -0.18726,1.68389 -0.41622,2.42051c-0.22896,0.73734 0.07315,0.51716 0.67151,-0.4879l1.08846,-1.828l0.48937,2.19374c0.74905,3.35901 0.97215,3.80083 1.03506,2.05403c0.03145,-0.88145 0.42207,-1.828 0.86755,-2.10304c0.54496,-0.33722 0.64883,0.00805 0.31674,1.05408c-0.27797,0.87633 -0.17483,1.55442 0.23627,1.55442c0.40159,0 0.87267,-0.741 1.04676,-1.64586c0.17483,-0.90485 0.36209,0.10168 0.41695,2.23763c0.06364,2.48268 0.37379,3.71378 0.86097,3.41314c0.41841,-0.25895 0.56252,-1.18355 0.31966,-2.05476c-0.41256,-1.482 -0.33941,-1.46664 1.13527,0.24432c1.04091,1.20696 1.43007,1.39349 1.14332,0.54862c-1.16015,-3.42265 -1.17185,-3.69184 -0.08193,-1.81117c1.16234,2.00502 0.91656,3.87544 -0.40232,3.05983c-0.37452,-0.23115 -0.68102,-0.09875 -0.68102,0.29406c0,0.39354 -0.19531,1.31815 -0.43451,2.05476c-0.36209,1.11479 -0.30211,1.15576 0.35404,0.24286c0.5691,-0.79074 0.79294,-0.83317 0.80098,-0.15215c0.00585,0.51936 -0.65542,1.65975 -1.46957,2.53389c-0.81415,0.87413 -1.86823,2.88354 -2.34224,4.46429c-0.47327,1.58148 -0.98678,2.49877 -1.1404,2.03794c-0.15361,-0.46084 -0.59251,-0.83756 -0.97581,-0.83756c-0.41841,0 -0.39354,0.56471 0.06364,1.41836c0.50473,0.94362 0.51351,1.57051 0.0256,1.87189c-0.40378,0.24944 -0.77172,-0.14191 -0.81854,-0.86974c-0.07827,-1.22305 -0.11046,-1.22598 -0.41914,-0.04316c-0.18434,0.70443 -0.60714,1.28011 -0.9407,1.28011c-0.33356,0 -1.29108,1.07017 -2.12864,2.37735c-0.99117,1.54784 -1.52662,1.94577 -1.53467,1.1404c-0.00658,-0.68029 -0.36355,-1.4542 -0.79294,-1.719c-0.42939,-0.26553 -0.71906,-0.03804 -0.64444,0.50546c0.26261,1.91431 -0.04608,2.89744 -0.76953,2.4505c-0.40232,-0.24871 -0.73149,0.08046 -0.73149,0.73149c0,0.70808 -0.33941,0.97435 -0.84487,0.662c-0.54423,-0.33649 -0.64444,-0.1997 -0.28309,0.38623c0.39281,0.63567 0.79294,0.67663 1.33131,0.13825c0.53911,-0.53911 1.008,-0.45645 1.5632,0.27285c0.68102,0.89535 1.57124,0.83244 6.27985,-0.44255c5.2404,-1.41909 12.30734,-3.9837 17.33635,-6.29229c2.31883,-1.06432 4.29093,-0.74027 3.4797,0.57129c-0.23115,0.37452 -0.09583,0.68102 0.30064,0.68102c0.68833,0 0.58154,2.6341 -0.26699,6.58342c-1.3774,6.41225 -1.24573,5.89216 -2.51633,9.94024c-1.02994,3.28147 -3.45703,4.68959 -8.08371,4.68959c-3.83667,0 -2.2625,0.60787 2.93986,1.13527c2.60265,0.26334 5.19505,0.91948 5.7605,1.45786c0.87413,0.83244 0.62762,1.21574 -1.64586,2.55656c-1.47103,0.86828 -2.67433,1.72998 -2.67433,1.91504c0,0.18507 0.27943,0.16385 0.62104,-0.04682c0.34088,-0.2114 1.32766,0.27504 2.19155,1.07968c1.11114,1.03506 1.51858,2.18789 1.3913,3.93469c-0.09948,1.35911 -0.30503,2.34809 -0.45645,2.19813c-0.15142,-0.15069 -1.18282,0.19531 -2.29176,0.7688c-1.10821,0.57349 -3.02472,1.22013 -4.25801,1.43738c-1.23403,0.21725 -3.16516,0.75197 -4.29239,1.18794c-1.1265,0.43597 -2.57192,0.899 -3.21125,1.02848c-2.72846,0.55447 -7.677,2.13083 -8.41215,2.68018c-0.53106,0.3972 -0.79513,5.90021 -0.79367,16.5617c0.00293,14.32114 -0.13898,16.20692 -1.37301,18.2968c-1.75485,2.96986 -3.4029,3.47458 -5.93313,1.81776c-2.51853,-1.64951 -9.02075,-1.85067 -9.02368,-0.27943c-0.00073,0.57203 0.54277,1.64074 1.20696,2.37515c1.36277,1.50541 1.49151,4.87978 0.27431,7.15472c-0.57861,1.08114 -1.32693,1.42421 -2.60192,1.19306c-1.16307,-0.21067 -2.04159,0.1068 -2.50755,0.90559c-0.39501,0.67663 -0.72783,0.84048 -0.74027,0.36428c-0.0139,-0.55228 -0.75051,-0.71979 -2.03355,-0.46303c-1.10602,0.22164 -2.50536,0.4089 -3.10884,0.41695c-0.60348,0.00805 -1.50834,0.33868 -2.0116,0.73588c-2.97936,2.35028 3.24782,-7.97838 6.72899,-11.16183c2.1835,-1.99697 7.26883,-10.20211 6.6851,-10.78584c-0.53765,-0.53765 -5.39475,3.48629 -9.67836,8.01715c-4.12927,4.367 -6.76556,9.07488 -6.29814,11.24668c0.28674,1.33497 0.64152,4.96829 1.16088,11.89332c0.16093,2.14254 -0.12728,3.54627 -0.88218,4.30117c-1.00653,1.00653 -1.19745,0.94362 -1.87408,-0.6203c-0.41476,-0.95825 -1.17112,-2.17692 -1.68097,-2.70798c-0.50985,-0.53179 -0.92973,-1.35472 -0.93192,-1.82873c-0.00293,-0.47474 -0.41402,-1.68536 -0.91436,-2.69116c-0.50034,-1.0058 -0.87047,-3.31 -0.8222,-5.12044c0.13459,-5.01584 0.19604,-5.25577 1.19233,-4.65741c0.53326,0.32039 0.45645,-0.0256 -0.18287,-0.82878c-0.63932,-0.80318 -0.71613,-1.14917 -0.18287,-0.82878c1.65171,0.99263 0.95606,-0.63128 -1.22086,-2.84843c-3.02984,-3.08616 -7.3749,-6.28717 -5.91118,-4.35457c1.01677,1.34229 1.00361,1.3752 -0.18287,0.44475c-0.70443,-0.55228 -1.28011,-1.49297 -1.28011,-2.08987c0,-0.65468 -0.42719,-0.92241 -1.07383,-0.67444c-0.59031,0.22676 -1.29986,0.04682 -1.57563,-0.40013c-0.3043,-0.49229 -0.16971,-0.60714 0.34161,-0.2904c0.4645,0.28674 0.84487,0.20848 0.84487,-0.17483c0,-0.3833 -0.49376,-0.88584 -1.09724,-1.11772c-0.60348,-0.23115 -1.09724,-1.02336 -1.09724,-1.7607c0,-0.73661 -0.32259,-1.66195 -0.71686,-2.05622c-0.39427,-0.39427 -1.09943,-4.65667 -1.56685,-9.47281l-0.84926,-8.75595l3.02911,-13.28023c2.70798,-11.87064 3.02984,-14.28164 3.02984,-22.70549c0,-12.45291 2.01306,-20.11089 6.54685,-24.90948c1.4447,-1.52882 1.67585,-1.56539 3.27342,-0.51863c1.55442,1.01824 1.83165,1.01312 2.89817,-0.0534c0.64883,-0.64883 1.1799,-0.84634 1.1799,-0.43889c0,0.40671 -0.32917,0.94362 -0.73149,1.19233c-0.40232,0.24871 -0.73149,0.76441 -0.73149,1.14625c0,1.40081 2.9267,-1.1799 2.95157,-2.60265c0.02341,-1.32327 0.13825,-1.28742 1.14844,0.35916c0.61665,1.0058 0.9546,1.28011 0.75124,0.60933c-0.20482,-0.67444 0.10753,-1.403 0.69931,-1.62976c0.68614,-0.26334 0.92826,-1.0058 0.67517,-2.07232c-0.21579,-0.91436 -0.06071,-2.64946 0.34526,-3.85642c0.71101,-2.11401 0.72857,-2.12133 0.48059,-0.20482c-0.14118,1.09431 0.02487,1.81556 0.36867,1.6027c0.34453,-0.21286 0.62616,-0.01902 0.62616,0.43085c0,0.44987 0.36428,0.59251 0.80976,0.31747c0.5808,-0.35916 0.58446,-0.63932 0.01317,-0.99263c-0.98751,-0.61006 -0.44548,-3.7745 0.77684,-4.52939c0.6759,-0.41841 0.54277,-0.96484 -0.53179,-2.17911l-1.43372,-1.62099l1.90846,1.22744c1.75412,1.12723 4.71593,0.9802 3.98736,-0.19823c-0.1719,-0.2787 -0.01097,-0.98459 0.35916,-1.56905c0.50107,-0.79221 0.69638,-0.504 0.76807,1.13235c0.05925,1.3518 0.22823,1.68243 0.44036,0.86097c0.20335,-0.78489 0.77099,-1.17112 1.37813,-0.93777c0.60129,0.23042 1.0336,-0.05267 1.0336,-0.67736c0,-1.16746 1.46152,-1.15356 2.43294,0.02268c0.35843,0.43377 0.47035,0.28528 0.27431,-0.36575c-0.18141,-0.60348 -0.68833,-1.01897 -1.1265,-0.92314c-0.43816,0.09583 -0.6086,-0.316 -0.37891,-0.91436c0.55813,-1.45494 0.8873,-1.38032 2.45854,0.5574c0.73369,0.90485 1.60855,1.37228 1.9443,1.03725c0.33575,-0.33429 0.08485,-0.99263 -0.55813,-1.46298c-0.86097,-0.62981 -0.95752,-1.08626 -0.36501,-1.73217c1.05774,-1.15429 1.40958,-1.166 0.97435,-0.03292M137.6111,10.94478c-0.72271,0.71686 -0.8061,0.63274 -0.40964,-0.40964c0.27504,-0.72125 0.68394,-1.12723 0.90924,-0.90193c0.2253,0.22457 0.00073,0.81488 -0.49961,1.31156M154.34469,11.19349c0,0.158 -0.49376,0.28748 -1.09724,0.28748c-0.60348,0 -1.09724,-0.31893 -1.09724,-0.70882c0,-0.38915 0.49376,-0.51863 1.09724,-0.28748c0.60348,0.23188 1.09724,0.55081 1.09724,0.70882M146.03349,12.5782c-0.23115,0.60348 -0.10168,1.09724 0.28748,1.09724c0.38988,0 0.70882,-0.49376 0.70882,-1.09724c0,-0.60348 -0.12947,-1.09724 -0.28748,-1.09724c-0.158,0 -0.47693,0.49376 -0.70882,1.09724M141.5136,13.72445c-0.26553,0.42865 -0.32551,0.93704 -0.13386,1.12869c0.19165,0.19165 0.5435,-0.15947 0.78196,-0.7805c0.49449,-1.28889 0.07315,-1.51565 -0.6481,-0.34819M156.65474,15.13842c0,1.0058 0.16605,1.41763 0.36867,0.91436c0.20335,-0.50253 0.20335,-1.32546 0,-1.82873c-0.20262,-0.50253 -0.36867,-0.09144 -0.36867,0.91436M133.59813,16.23566c0.23188,0.60348 0.55081,1.09724 0.70882,1.09724c0.158,0 0.28748,-0.49376 0.28748,-1.09724c0,-0.60348 -0.31893,-1.09724 -0.70882,-1.09724c-0.38915,0 -0.51863,0.49376 -0.28748,1.09724M126.18227,24.64781c0.24871,0.40232 0.10314,0.73149 -0.32259,0.73149c-0.42573,0 -0.77465,-0.32917 -0.77465,-0.73149c0,-0.40232 0.14484,-0.73149 0.32259,-0.73149c0.17775,0 0.52594,0.32917 0.77465,0.73149M165.01788,28.11728c-0.50766,0.50692 -1.89529,-0.52375 -1.89529,-1.40739c0,-0.48571 0.41988,-0.43012 1.11479,0.14703c0.61299,0.50912 0.96411,1.07602 0.7805,1.26036M162.64639,30.8889c-0.58007,1.51199 -0.98678,1.33424 -0.98678,-0.43231c0,-0.82805 0.31454,-1.31156 0.69931,-1.07383c0.38476,0.23773 0.51424,0.91583 0.28748,1.50614M191.41887,51.11902c-0.23335,0.583 -0.40671,0.40964 -0.44182,-0.44255c-0.03145,-0.77099 0.14118,-1.20257 0.38403,-0.95972c0.24286,0.24286 0.26919,0.87413 0.05779,1.40227M200.42865,52.81023c0.52521,0.63274 0.59617,1.09724 0.16751,1.09724c-0.40817,0 -0.93192,-0.49376 -1.1638,-1.09724c-0.23115,-0.60348 -0.30649,-1.09724 -0.16751,-1.09724c0.13898,0 0.66273,0.49376 1.1638,1.09724M193.5402,58.07258c0.43597,0.07827 0.79294,-0.33283 0.79294,-0.91436c0,-0.5808 -0.31454,-1.05627 -0.69931,-1.05627c-0.38476,0 -0.30137,-0.47913 0.18507,-1.06505c0.48571,-0.58592 0.68906,-1.38032 0.45133,-1.76436c-0.49229,-0.79806 0.95094,-0.70443 2.3181,0.14996c0.50327,0.31454 1.16453,0.41622 1.47103,0.22749c1.30718,-0.8083 3.22441,1.73802 3.45337,4.58499c0.13167,1.64293 0.02414,2.98668 -0.2392,2.98595c-0.26334,-0.00073 -0.47913,2.52218 -0.47913,5.60542c0,4.1717 -0.26407,5.69539 -1.03067,5.95288c-0.71979,0.24212 -0.88803,-0.02707 -0.5574,-0.88803c0.31527,-0.8222 0.19385,-1.06213 -0.36428,-0.71759c-0.56983,0.35258 -0.70662,0.0139 -0.42573,-1.0592c0.22676,-0.86755 0.09436,-1.5771 -0.29406,-1.5771c-0.38842,0 -0.50253,-0.32917 -0.25383,-0.73149c0.24871,-0.40232 0.03731,-0.73149 -0.46889,-0.73149c-0.71613,0 -0.72564,-0.19531 -0.04316,-0.87779c0.48278,-0.48278 0.87267,-1.22305 0.86682,-1.64586c-0.00731,-0.47913 -0.2136,-0.45499 -0.54862,0.0651c-0.38988,0.60421 -0.79733,0.55374 -1.48054,-0.18287c-0.77977,-0.83975 -0.71613,-1.02628 0.36575,-1.07383c0.84341,-0.03731 0.96703,-0.19458 0.34673,-0.44255c-0.52887,-0.2114 -1.26109,-1.17331 -1.62757,-2.13669c-0.65761,-1.72925 -2.16521,-2.44026 -2.16521,-1.02043c0,0.40232 0.29187,0.73149 0.64883,0.73149c0.35624,0 0.81122,0.90559 1.01019,2.0116c0.19897,1.10602 1.02409,4.48039 1.83239,7.49779c3.14761,11.74483 4.555,20.36838 4.50087,27.57138c-0.07534,9.93365 -0.70443,13.57209 -2.39051,13.81787c-0.741,0.10753 -1.19014,0.0395 -0.99922,-0.15142c0.19092,-0.19092 0.07388,-1.55954 -0.26041,-3.04154c-0.33429,-1.482 -0.66858,-5.98579 -0.7432,-10.00827c-0.13533,-7.29151 -0.81049,-10.74561 -2.50536,-12.8267c-0.49156,-0.60348 -1.4681,-2.74309 -2.17107,-4.75469c-0.70296,-2.0116 -1.45201,-4.15121 -1.66414,-4.75469c-0.49595,-1.41105 -0.3043,-12.87059 0.31747,-19.01878l0.48132,-4.75469l0.78855,2.92597c0.43377,1.60928 1.14552,2.99034 1.58075,3.06788M197.19034,55.28414c-0.17263,0.2787 0.48571,0.57349 1.46225,0.65468c0.97654,0.08046 1.77606,0.02414 1.77606,-0.12582c0,-0.5435 -2.93328,-1.02263 -3.23831,-0.52887M162.20823,58.78067c0.50327,0.20335 1.32619,0.20335 1.82873,0c0.50327,-0.20262 0.09144,-0.36867 -0.91436,-0.36867c-1.0058,0 -1.4169,0.16605 -0.91436,0.36867M154.2079,59.52752c0.52741,0.2114 1.15868,0.18507 1.40154,-0.05779c0.24286,-0.24286 -0.18872,-0.41549 -0.95972,-0.38403c-0.85219,0.03511 -1.02555,0.20848 -0.44182,0.44182M157.13387,59.52752c0.52741,0.2114 1.15868,0.18507 1.40154,-0.05779c0.24286,-0.24286 -0.18872,-0.41549 -0.95972,-0.38403c-0.85219,0.03511 -1.02555,0.20848 -0.44182,0.44182M144.28669,60.29193c1.50907,0.158 3.97785,0.158 5.48619,0c1.50907,-0.15727 0.27431,-0.28674 -2.74309,-0.28674c-3.0174,0 -4.25143,0.12947 -2.74309,0.28674M138.84658,66.11094c0.52741,0.2114 1.15868,0.18507 1.40154,-0.05779c0.24286,-0.24286 -0.18872,-0.41549 -0.95972,-0.38403c-0.85219,0.03511 -1.02555,0.20848 -0.44182,0.44182M154.54146,66.11826c0.71174,0.1858 1.69925,0.17336 2.19447,-0.02707c0.49522,-0.20043 -0.08705,-0.35185 -1.29401,-0.33722c-1.20696,0.01463 -1.61221,0.17848 -0.90047,0.36428M113.12515,75.3014c-3.65161,0.94728 -5.00194,3.73865 -3.93908,8.14369c0.39939,1.65756 0.70443,3.59162 0.67736,4.29824c-0.02853,0.73003 0.9407,1.79727 2.24348,2.47098c2.05256,1.06139 7.1101,1.11699 14.32699,0.158c0.26407,-0.03511 1.63196,-0.01317 3.04008,0.04901l2.56022,0.11265l-1.82873,1.0453c-1.0058,0.57495 -2.569,1.05701 -3.47458,1.07163c-0.90559,0.0139 -1.64586,0.35477 -1.64586,0.75709c0,0.40232 -0.82293,0.73149 -1.82873,0.73149c-1.0058,0 -1.82873,0.32917 -1.82873,0.73149c0,1.34156 8.53285,0.80684 12.58165,-0.78928c3.6399,-1.43445 6.01359,-1.5376 8.70255,-0.37599c0.99337,0.42939 1.20257,-0.23847 1.39642,-4.46868c0.54862,-11.9394 0.61006,-11.54513 -1.83312,-11.6512c-1.20696,-0.05194 -4.1695,-0.44255 -6.58342,-0.86682c-2.41392,-0.425 -6.85773,-0.9919 -9.87513,-1.26036c-3.0174,-0.26773 -6.4737,-0.57788 -7.68066,-0.68833c-1.20696,-0.10972 -3.46142,0.12874 -5.01072,0.53106M171.90049,97.29442c0.60348,0.23481 2.77674,0.57422 4.82857,0.7549c6.95868,0.61372 10.32354,3.99248 6.90382,6.93381c-0.94582,0.81415 -0.95021,0.87925 -0.02853,0.4111c1.03433,-0.52594 0.05047,0.69492 -4.4994,5.58274c-1.06578,1.14552 -1.72413,2.32249 -1.46298,2.61508c0.26187,0.2926 0.05047,0.28674 -0.47035,-0.0139c-0.52009,-0.29991 -1.42568,-0.14776 -2.0116,0.33795c-0.71686,0.59543 -1.06505,0.62323 -1.06505,0.08632c0,-0.43889 -0.46084,-0.62177 -1.02336,-0.40525c-1.3518,0.51863 -7.39245,-5.08825 -9.70031,-9.0032c-2.24275,-3.80449 -2.10596,-7.0545 0.31088,-7.39757c0.91071,-0.12947 1.50102,-0.48717 1.31156,-0.79367c-0.35038,-0.56691 4.89368,0.11119 6.90674,0.89169M161.48551,108.22071c0.95533,1.18502 -0.23335,4.43576 -1.47103,4.02393c-1.06505,-0.35477 -1.58295,-2.36564 -0.99995,-3.88349c0.49815,-1.29767 1.49371,-1.35399 2.47098,-0.14045M170.43751,119.7417c0.80464,0.80464 1.46298,1.94942 1.46298,2.54486c0,0.899 -0.33868,0.93704 -2.0116,0.22676c-1.10602,-0.47035 -2.34077,-1.16965 -2.74309,-1.55515c-0.47035,-0.44914 -0.33941,-0.48059 0.36575,-0.08632c0.90924,0.50839 0.94143,0.42134 0.18946,-0.50839c-0.88364,-1.09212 -0.56764,-2.08475 0.66419,-2.08475c0.33502,0 1.26767,0.65834 2.07232,1.46298M152.48378,131.35559c-0.49741,0.49741 -13.50041,0.51643 -13.50041,0.01975c0,-0.26553 0.49376,-0.89169 1.09724,-1.39276c0.60348,-0.50107 1.09724,-0.61153 1.09724,-0.24651c0,1.23695 7.21763,0.65688 8.56284,-0.68833c1.19306,-1.19233 1.30791,-1.17185 2.14108,0.38476c0.48425,0.90485 0.7549,1.77021 0.60202,1.92309M157.08779,136.26902c2.11182,0.22091 3.84033,0.72418 3.84033,1.11845c0,1.69633 -5.19944,2.79795 -13.81129,2.92597c-7.9696,0.1185 -8.87957,0.26773 -9.27677,1.51858c-0.64737,2.03867 0.65468,3.54042 5.89802,6.80287c5.99238,3.72841 6.01652,3.7328 10.50641,2.13157c3.99175,-1.42421 9.97169,-1.8002 11.69435,-0.73588c1.01897,0.63055 1.12723,3.35974 0.1324,3.35974c-0.38915,0 -0.49815,0.54789 -0.24139,1.2172c0.31454,0.81854 0.18726,1.04384 -0.38842,0.68833c-0.78708,-0.48644 -1.20257,0.43524 -0.9129,2.02477c0.06437,0.35112 -0.39062,0.44328 -1.01019,0.20555c-0.6203,-0.23773 -1.12723,-0.1324 -1.12723,0.23408c0,0.36648 -0.65834,0.53984 -1.46298,0.38476c-0.80464,-0.15508 -1.46298,0.00951 -1.46298,0.36575c0,0.35624 -0.65834,0.52082 -1.46298,0.36575c-0.91729,-0.17629 -1.46298,0.11192 -1.46298,0.77319c0,0.5808 -0.32917,1.05554 -0.73149,1.05554c-0.40232,0 -0.73149,-0.34892 -0.73149,-0.77465c0,-0.42573 -0.32917,-0.57129 -0.73149,-0.32259c-0.40232,0.24871 -0.73149,0.10314 -0.73149,-0.32259c0,-0.42573 -0.31893,-0.77465 -0.70882,-0.77465c-0.38915,0 -0.49668,0.55081 -0.23847,1.22452c0.35477,0.92534 0.17263,1.10967 -0.74685,0.75709c-0.88072,-0.33795 -1.34156,0.03072 -1.66926,1.3357c-0.24871,0.9919 -0.76587,1.80313 -1.14771,1.80313c-0.38257,0 -0.52228,-0.28089 -0.31015,-0.62396c0.21213,-0.34307 -0.11484,-1.24792 -0.72637,-2.0116c-1.06798,-1.33351 -1.09358,-1.324 -0.65834,0.25822c0.4645,1.68901 -0.74393,2.37588 -1.29108,0.73369c-0.18653,-0.56032 -0.64737,-0.27138 -1.19306,0.74832c-0.81488,1.5215 -0.98751,1.5632 -2.05769,0.49303c-0.9524,-0.95313 -1.2962,-0.98971 -1.85726,-0.20043c-0.49376,0.69419 -0.59178,0.52302 -0.34746,-0.60348c0.28455,-1.30937 0.04096,-1.53833 -1.45859,-1.37374c-1.04457,0.11411 -1.97064,-0.24724 -2.20618,-0.8617c-0.22384,-0.583 -1.20403,-1.36277 -2.17984,-1.73363c-0.97508,-0.37087 -1.59026,-0.96923 -1.36716,-1.32985c0.2231,-0.36136 -0.08924,-0.84634 -0.69419,-1.07822c-0.60494,-0.23261 -1.01458,-0.67809 -0.90998,-0.99117c0.10387,-0.31308 -0.53399,-1.29255 -1.41763,-2.17619c-1.85653,-1.85653 -3.46215,-6.90967 -3.20905,-10.09678c0.09656,-1.20696 0.88803,-3.25294 1.7607,-4.54622c1.55296,-2.30347 1.71096,-2.3554 7.80648,-2.56022c6.95356,-0.23335 14.53547,-0.01244 20.30254,0.59178M193.80646,153.39031l-0.43597,6.94917l-0.12874,-5.97482c-0.10387,-4.85783 0.3694,-9.17656 0.89242,-8.13784c0.05925,0.11777 -0.08851,3.34145 -0.32771,7.1635M117.60773,167.61416c1.09504,2.39198 2.72188,5.43718 3.61503,6.7663c0.89315,1.32985 1.4564,2.41758 1.25085,2.41758c-0.20482,0 0.05194,0.5413 0.57129,1.20257c1.14625,1.46298 18.49869,18.79128 18.49869,18.47382c0,-0.31235 2.88281,2.1045 6.48248,5.43425c3.45849,3.20028 5.48545,4.37139 10.46764,6.04724c1.94211,0.65395 3.66624,1.31449 3.83082,1.4681c0.16459,0.15434 -1.5632,2.23324 -3.84033,4.6201c-2.2764,2.38759 -4.13951,4.70934 -4.13951,5.16067c0,0.45133 -2.55144,-1.76582 -5.66906,-4.92733c-3.11762,-3.16151 -9.5979,-8.68792 -14.40014,-12.28101c-9.11438,-6.81969 -22.68282,-19.68151 -24.52471,-23.2468c-0.95606,-1.85067 -0.93192,-2.4344 0.22384,-5.48619c0.71174,-1.87774 1.40227,-4.92952 1.53467,-6.78093c0.13167,-1.8514 0.49522,-5.47229 0.80757,-8.04641l0.56691,-4.68008l1.36643,4.75469c0.75124,2.61508 2.2625,6.71143 3.35755,9.10341M153.02435,155.95053c0.01463,1.20696 0.17848,1.61221 0.36428,0.90047c0.1858,-0.71174 0.17336,-1.69925 -0.02707,-2.19447c-0.20043,-0.49522 -0.35185,0.08705 -0.33722,1.29401M136.05741,159.97373c0,0.40232 -0.34892,0.73149 -0.77465,0.73149c-0.42573,0 -0.57129,-0.32917 -0.32259,-0.73149c0.24871,-0.40232 0.5969,-0.73149 0.77465,-0.73149c0.17775,0 0.32259,0.32917 0.32259,0.73149"/></g></svg>
