<svg enable-background="new 0 0 90 90" viewBox="0 0 90 90" xmlns="http://www.w3.org/2000/svg"><path d="m1 83c0-27.285809 0-54.571617 0-81.928712h90c0 26.282186 0 52.636788-.250862 79.319291-.747017-.245224-1.243172-.818352-1.649788-1.740478-.189873-1.164376-.469292-1.979752-.815529-3.164589-1.370148-2.077522-2.329491-4.39769-4.049492-5.364281-3.421486-1.92276-7.26152-3.100738-10.865219-4.751907.063393-.165474-.184105-.419152-.160568-.752732-.715988-.760826-1.455513-1.188072-2.316712-1.994201.197152-4.828869-2.966819-4.588646-6.072135-4.827076-.17714-.161118-.655571-.182842-.852112-.446381-1.422104-.721447-2.647671-1.179355-3.800774-1.906078.084614-.640103.096764-1.011383.366211-1.616673.47628-2.061996.695267-3.889988 1.105164-5.986355 1.112003-4.333686 2.033088-8.398998 2.954177-12.464309-1.531456-1.982205-2.187992-4.251435-2.670837-6.557039-.267483-1.277218-.244461-2.615273-.371345-4.269858-1.345551-4.807972-3.002518-8.96485-8.8862-9.754766-4.901833-.925933-9.547902-2.41969-13.877022 1.473478-1.835892 2.067629-3.432236 3.86488-5.255734 5.772778-.620109.720912-1.013065 1.331178-1.461403 2.376314-.439828 3.505037-.815517 6.576338-1.212255 9.644914-.211603 1.636669-.459572 3.268643-.831455 5.206246.228012 1.449348.596355 2.595184.924108 4.062877-.043484.748978-.046377 1.176091-.002489 1.634266.046782.031063-.031452-.049507-.167177.037831-.277413.448997-.158074.678859.24065 1.111225.241091 1.165191.463823 1.99609.679915 3.248802.097684 2.099895.202009 3.777977.061473 5.563557-.436266.390957-.627672.674411-1.164674 1.06945-2.798579 1.56374-5.969462 2.481079-7.540657 4.590141-2.520506 3.383362-4.775671 6.480976-9.126396 7.689511-2.472952.686935-4.703151 2.247772-7.39083 3.538345-2.078783 3.811005-3.809408 7.498703-5.540033 11.186409z" fill="#f3f2f2"/><path d="m73.30571 65.53479c3.667099 1.485703 7.507133 2.663681 10.928619 4.586441 1.720001.966591 2.679344 3.286759 3.670105 5.431824-1.002014.85778-2.19622 1.179634-2.301132 1.714973-.847855 4.326424-4.458527 5.166039-7.670532 6.936516-2.98568 1.645737-5.314659 4.482864-7.93277 6.795456-4.024544 0-8.049088 0-12.538406-.334106-.468552-.779572-.472329-1.225045-.470597-2.086274.001889-1.801872-.001728-3.187965-.035835-4.920593-.336357-1.455299-.642227-2.564072-.599915-3.70404 2.596398-1.419236 5.114201-2.511261 7.034089-4.259804 3.492805-3.181092 6.630493-6.752098 9.916374-10.160393z" fill="#2a2728"/><path d="m6.88819 71.690292c2.339522-1.167274 4.569721-2.728111 7.042673-3.415046 4.350725-1.208535 6.60589-4.306149 9.126396-7.689511 1.571195-2.109062 4.742078-3.026401 7.555227-4.203277-.402958 3.47134-1.235155 6.685272 2.699568 8.991726 4.678314 4.726944 9.198475 9.169082 13.94482 13.763816.396401.473267.56662.793931.748924 1.282181.012081.167588.018353.503563-.136921.603104-.22372.197639-.371658.347572-.34719.385101.121765.186768.288902.343949.451465.966477.016552 3.178322.021698 5.901733.026848 8.625137-.444447 0-.888889 0-1.666042-.452454-.339806-2.738807-.07206-5.07257-.455296-7.294036-.236446-1.370614-1.465103-2.570046-2.248306-3.846337-1.212444.87806-2.497914 1.672814-3.618786 2.655342-1.389763 1.218231-2.643185 2.591995-3.962154 3.513665.229961-2.865235.466587-5.345559.745868-8.170418-2.380707-5.314072-6.803531-6.912918-12.25737-7.461663-4.099498.654244-7.818525 1.355072-11.921323 2.063034-2.126016.338044-3.868263.668961-5.637999.670479-.04846-.548713-.069431-.768013-.090402-.98732z" fill="#2d2a29"/><path d="m36.056072 85.961098c1.312313-1.306588 2.565735-2.680352 3.955498-3.898583 1.120872-.982528 2.406342-1.777282 3.618786-2.655342.783203 1.276291 2.01186 2.475723 2.248306 3.846337.383236 2.221466.11549 4.555229.121964 7.294036-4.02517.452454-8.049714.452454-12.598328.111267-2.150148-1.113632-3.776222-1.88607-5.773611-2.703384-3.456837-1.015259-6.542358-1.985649-9.674669-3.273376-.682585-.772248-1.318379-1.22715-2.332777-1.728897-2.126964-.348534-3.875322-.650231-5.873263-.952973-.249581-.001045-.748744-.0037-.748359-.001938.000384.001755.003593.003937-.020174-.294662-.342657-.775269-.661545-1.251923-1.003802-2.01928-.333232-.752807-.643096-1.21492-.959642-2.093834-.007763-1.805694-.008842-3.19458-.00992-4.583465 1.742247-.33091 3.484494-.661827 5.83558-.802872-.494497 1.801704-1.597832 3.413559-3.173727 5.715767 6.123726 2.540207 11.73976 5.167046 17.572817 7.158081 2.721798.929062 5.863787.627106 8.815321.883118z" fill="#343130"/><path d="m8.999234 81.996483s.499163.002655.75118.386467c.071569 4.559501 3.274963 5.477188 6.250246 6.947952-.000492.778923-.000576 1.224007-.00066 1.669098-4.891231 0-9.78246 0-15 0 0-2.327553 0-4.669044 0-7.505264 1.730625-4.182442 3.46125-7.87014 5.540032-11.681145.369129.096008.3901.315308.43856.864014.028567 1.718284.029646 3.10717-.239318 5.169769-.150496 2.727257-.030948 4.780792.0886 6.834335.525439-.026451 1.050879-.052894 1.576319-.079345.198347-.868622.396694-1.737252.595041-2.605881z" fill="#282627"/><path d="m70.444168 91c2.173943-2.312592 4.502922-5.149719 7.488602-6.795456 3.212005-1.770477 6.822677-2.610092 7.670532-6.936516.104912-.535339 1.299118-.857193 2.36795-1.345512.658806.747833.938225 1.563209.772675 2.797974-.880997 1.703315-1.317039 2.987236-1.760727 4.639831-.333641 1.791374-.659645 3.214066-1.290611 4.593338-1.034348-.629158-1.763718-1.214905-1.891899-1.317841-1.757416 1.322205-3.779053 2.843194-5.80069 4.364182-2.37056 0-4.741112 0-7.555832 0z" fill="#1d1b1b"/><path d="m48.024151 80.923744s-.006272-.335975.381344-.566688c2.453796-.626213 4.519977-1.021714 6.836731-1.395661.418049.029335.585529.037117.756134.289864.00312.244964.008701.734917.008705.734917.30587 1.108779.61174 2.217552.691334 3.910491-.055157 2.089013.115966 3.593865.287086 5.098717.00378.445465.007557.890938.012928 1.67051-2.698425.334106-5.398441.334106-8.548435.334106-.455128-2.723404-.460274-5.446815-.46555-8.873993.013161-.869934.026444-1.036102.039723-1.202263z" fill="#33302f"/><path d="m16.001068 88.997063c-2.975691-1.136925-6.179085-2.054612-6.001072-6.613076 1.745923-.081062 3.494281.220635 5.667821.886628 1.061118.81913 1.697055 1.273948 2.33299 1.728775 3.085522.97039 6.171043 1.94078 9.62788 3.330993.371313 1.169762.371313 1.919686.371313 2.669617-3.030594 0-6.061186 0-9.591476-.31781-1.135617-.77359-1.771536-1.229355-2.407456-1.685127z" fill="#323030"/><path d="m85.997559 87.997078c.325996-1.422691.652-2.845383 1.311653-4.602745 1.45269.312118 2.571739.958893 3.690788 1.605667v6c-1.328537 0-2.664307 0-4.499207-.375328-.500503-1.126083-.501869-1.876839-.503234-2.627594z" fill="#080607"/><path d="m85.692589 87.953659c.306335.794174.307701 1.54493.308243 2.671013-2.371392.375328-4.741944.375328-7.556664.375328 1.577469-1.520988 3.599106-3.041977 5.356522-4.364182.128181.102936.857551.688683 1.891899 1.317841z" fill="#100f0f"/><path d="m91 84.600006c-1.119049-.24678-2.238098-.893555-3.683151-1.574356.110039-1.317924.546081-2.601845 1.337539-3.956154.851578.502731 1.347733 1.075859 2.09475 1.789742.250862 1.207435.250862 2.274101.250862 3.740768z" fill="#100f0f"/><path d="m28.416666 91c-.416666-.749931-.416666-1.499855-.416666-2.624741 1.626076.397484 3.25215 1.169922 4.93911 2.283554-1.327999.341187-2.716889.341187-4.522444.341187z" fill="#33302f"/><path d="m16.00066 89.330902c.636328.121933 1.272247.577698 1.953754 1.351288-.398859.31781-.843303.31781-1.621082.31781-.333248-.445091-.333164-.890175-.332672-1.669098z" fill="#2a2829"/><path d="m61.569145 24.892574c.107918 1.310633.084896 2.648688.352379 3.925906.482845 2.305604 1.139381 4.574834 2.670837 6.557039-.921089 4.065311-1.842174 8.130623-3.269882 12.433166-1.420692-.808246-2.334766-1.853725-3.116516-3.205642.258305-1.071732.384293-1.837029.510281-2.602318-2.104351.329391-4.208699.658783-6.499993 1.017433-.056797-.875069-.118126-1.819977.234356-2.842747 2.056958-.4678 3.700108-.857734 5.343254-1.247669-.59975-1.363918-1.199501-2.727837-1.802185-4.524826.652817-3.751019 1.308564-7.068962 2.251515-10.252461 1.300121.337004 2.313038.539561 3.325954.742119z" fill="#8a6858"/><path d="m32.125202 23.981556c.392956-.610266.785912-1.220532 1.825985-1.93515 4.754551 1.611793 8.861981 3.327938 12.77478 5.307815-1.050357 1.72107-1.906093 3.178408-2.710414 4.54819 1.667846 1.363058 2.903907 2.373235 4.145908 3.712701.019806.548413.033665.767536-.414314.894844-4.57808-.51213-8.694317-.932441-12.756447-1.729416.4184-4.225439 1.51617-8.279691-2.865498-10.798984m10.350159 7.363016c.051185-.195126.102367-.390251.153553-.585377-.125191.125363-.250382.250723-.153553.585377z" fill="#f2aa89"/><path d="m54.991653 78.93985c-2.066181.395492-4.132362.790993-6.598239 1.249618-.56992-.257537-.740139-.578201-.993519-1.320236 1.039814-1.299988 2.16278-2.178619 3.720649-2.986572 6.080193.431274 9.970787-2.353561 12.885415-6.881027-.005509-.003022-.005227.008201.224052-.090607.516655-.298744.700096-.569191.774124-.910843-.005478-.000702-.003242.010758.368607.015564 2.851982-1.018646 5.332123-2.042107 7.812263-3.065575 0 0 .247498.253678.184105.419152-3.349281 3.573761-6.486969 7.144767-9.979774 10.325859-1.919888 1.748543-4.437691 2.840568-7.034089 4.259804-.348186.031189-.353767-.458764-.26773-.94339.053512-.860489.020984-1.236351-.011547-1.612221-.361439.513489-.722878 1.026985-1.084317 1.540474z" fill="#080607"/><path d="m46.920597 27.09049c-4.107429-1.716146-8.214859-3.432291-12.742252-5.15473 1.176376-1.803546 2.77272-3.600797 5.017517-5.665847 2.269237-.50975 4.064052-1.306357 5.470463-.865077 2.168777.680484 4.071502 2.208909 6.087082 3.377654-.922749 1.395283-1.845498 2.790561-2.772183 3.809721-1.494476-1.751459-2.948822-3.174454-4.556503-4.395575-.107891-.081951-1.375458 1.362875-2.103657 2.097595 1.550167 1.224394 3.086903 2.466692 4.666496 3.651862.21156.158731.639725.028761 1.163155.276014.776485.452558 1.357406.661587 1.859062 1.184215-.749233.770457-1.419208 1.227313-2.08918 1.684168z" fill="#a57f6b"/><path d="m30.990808 43.008602c-.368343-1.145832-.736686-2.291668-.579572-3.727543 1.554884-.289135 2.584312-.288227 3.83749-.034347 3.663788.637096 7.103821 1.021225 10.605003 1.858581.101544 2.263699.141949 4.074162-.221992 5.892449-.905861.174774-1.407383.341732-1.946068.590522-.037159.081841-.236569.371968-.560326.452347-.916866.377976-1.509971.675564-2.154602.657597-1.340156-.462048-2.628788-.608536-4.074409-1.017178-1.048348-1.08826-1.939713-1.914371-2.844368-3.060753-.695915-.750743-1.378535-1.181209-2.061156-1.611675z" fill="#e59a7b"/><path d="m47.985161 22.96833c.922748-1.395279 1.845497-2.790557 2.768246-4.18584-2.01558-1.168745-3.918305-2.69717-6.087082-3.377654-1.406411-.44128-3.201226.355327-5.230915.594701 3.680667-3.625371 8.326736-2.131614 13.342117-.86854 1.044609 2.378198 1.63174 4.176487 2.177032 6.285251-.688938 1.35245-1.33604 2.394423-2.370598 3.483883-1.423278.095856-2.459102.144222-3.494922.192589-.580918-.209026-1.161839-.418055-1.811615-1.08128.139076-.717657.397941-.913961.707737-1.04311z" fill="#815e4d"/><path d="m32.00745 54.818642c-.104324-1.678078-.208649-3.35616-.008995-5.282555 1.48576 1.044029 2.667545 2.336369 3.963162 3.955414 1.364719.731262 2.615608 1.135822 3.910347 1.921615 1.354351 2.257702 2.664855 4.134171 3.992053 6.325509.064442.733551.112198 1.152229-.089702 1.763145-2.870529-1.034229-5.491413-2.260693-8.238705-3.430763-.126411.056389-.401897.029091-.437801-.339218-1.054051-1.883252-2.072205-3.398201-3.090359-4.913147z" fill="#664533"/><path d="m34.024979 38.99374c-1.029431-.000908-2.058859-.001816-3.473416-.016193-.15357-1.647564.094399-3.279538.306002-4.916207.396738-3.068576.772427-6.139877 1.212255-9.644912 4.43705 2.084421 3.33928 6.138673 2.689946 10.61932-.434964 1.740573-.584874 2.849285-.734787 3.957992z" fill="#c38061"/><path d="m64.996834 57.956432c2.928177.077313 6.092148-.16291 5.531318 4.636372-2.003753 2.038902-3.76551 3.728523-5.527259 5.418137 0 0-.002236-.01146-.22152.093811-.499962.305961-.686416.57257-.778641.905082 0 0-.000282-.011223-.331981-.010582-.780838.01912-1.229977.03759-1.542008-.272262.381821-1.464196.626534-2.600067.872387-3.731224.001137.004722-.008686.002609.281212-.028176.431099-.681175.5723-1.331562.714798-2.356834.004829-1.124645.008362-1.874409.253441-2.798958.410454-.734981.579353-1.295174.748253-1.855366z" fill="#0c0b0c"/><path d="m58.073639 44.909481c.914074 1.045479 1.828148 2.090958 3.057926 3.167584.096722 1.85913-.122265 3.687122-.926712 5.63245-2.485447.510563-4.385433.903789-6.508964 1.220295-.50232-.247895-.707646-.483185-.580788-.979664.476101-.794236.693466-1.3914 1.167442-2.204125 1.434773-2.422558 2.612934-4.629551 3.791096-6.83654z" fill="#623d2b"/><path d="m64.007034 59.986584c-.003532.749763-.007065 1.499527-.248375 2.801899-.414585 1.105041-.591396 1.65747-.768211 2.209892-.000004 0 .009819.002113-.27636.139748-1.451168 1.047973-2.616157 1.958313-3.761215 2.434547.052925-2.44239.085922-4.45068.374676-6.763268.426105-1.902107.596455-3.499916.766804-5.097728 1.225559.457905 2.451126.915813 3.827144 2.031502.128819 1.186321.107182 1.714866.085537 2.243408z" fill="#080605"/><path d="m54.996399 21.105772c-.587132-1.798288-1.174263-3.596577-1.874939-5.732007 5.426201.210007 7.083168 4.366885 8.428722 9.174857-.993953.141394-2.00687-.061163-3.340793-.717686-1.285-1.211031-2.248997-1.968097-3.21299-2.725164z" fill="#412f26"/><path d="m31.76259 54.926144c1.263014 1.407444 2.281168 2.922393 3.144774 5.075851-.687519 2.121468-1.22049 3.604424-1.753464 5.087383-3.776569-2.021648-2.944372-5.23558-2.195816-8.818504.176834-.670319.36824-.953773.804506-1.34473z" fill="#0a0807"/><path d="m60.166813 55.442856c-.242809 1.86663-.413159 3.464439-.886562 5.053325-.63715-.508346-.971245-1.007766-1.360398-1.839015-1.00095-.410508-2.037716-.769051-2.870285-.498719-1.099911.357132-2.039802 1.207093-3.061947 1.495171.634957-1.782383 1.283387-3.214733 1.931813-4.647087 1.899986-.393227 3.799972-.786453 6.028122-1.063008.316017.48795.303867.85923.219257 1.499333z" fill="#322018"/><path d="m35.847786 53.164795c-1.181786-1.292339-2.363571-2.584679-3.84269-4.050522-.520071-1.004398-.742803-1.835297-.982072-3.218086-.016537-.551895-.106747-.980965-.106747-.980965s.078234.08057.392139.065216c.794886-.023533 1.275862-.031708 1.756842-.039886.891361.826107 1.782726 1.652218 2.812847 3.175155.082398 2.14758.026039 3.598336-.030319 5.049088z" fill="#a56f54"/><path d="m65.372742 68.015747c1.3899-1.69442 3.151657-3.384041 5.277084-5.044063 1.103203.456836 1.842728.884082 2.558716 1.644908-2.503677 1.357048-4.983818 2.380509-7.8358 3.399155z" fill="#252120"/><path d="m33.051964 44.620277c-.467686.328453-.948662.336628-1.790329.329098-.357794-.442821-.354901-.869934-.311417-1.618912.723211.108605 1.405831.539071 2.101746 1.289814z" fill="#c38061"/><path d="m64.248581 59.811798c-.219902-.353756-.198265-.882301-.130539-1.805084.046082-.394241.524513-.372517.701653-.211399.008239.721309-.16066 1.281502-.571114 2.016483z" fill="#171515"/><path d="m30.780552 45.00256c.135725-.087338.225935.341732.224113.55933-.382187.119529-.501526-.110333-.224113-.55933z" fill="#c38061"/><path d="m56.990997 88.57962c-.176632-1.089088-.347755-2.59394-.262115-4.336425.260387 1.14846.264004 2.534553.262115 4.336425z" fill="#2c2828"/><path d="m36.049416 85.57618c-2.944878.128906-6.086867.430862-8.808665-.4982-5.833057-1.991035-11.449091-4.617874-17.572817-7.158081 1.575895-2.302208 2.67923-3.914063 3.557497-5.722908 3.493958-.89782 7.212985-1.598648 11.474684-1.950165 4.379286 2.734024 8.215901 5.118752 12.05251 7.503479-.236622 2.480316-.473248 4.96064-.703209 7.825875z" fill="#373332"/><path d="m33.31205 65.374184c.374824-1.767765.907795-3.250721 1.631214-5.003884.190449-.270202.465935-.242904.761219.017037 2.12291 3.884117 4.276592 7.157234 8.786385 8.358741 2.577823 1.659295 5.029644 2.989068 7.368805 4.601044-.46645 1.009758-.82024 1.737313-1.174027 2.464859-1.122971.878632-2.245937 1.757263-3.511929 2.904663-4.663188-4.173378-9.183349-8.615516-13.861667-13.34246z" fill="#b07359"/><path d="m36.795284 77.405762c-3.879268-2.040184-7.715883-4.424912-11.714695-7.112351 4.911164.199433 9.333988 1.798279 11.714695 7.112351z" fill="#0a0909"/><path d="m47.868877 81.023285c.141995.06662.128712.232788.104153.647797-.162441.081253-.329578-.075928-.451343-.262696-.024468-.037529.12347-.187462.34719-.385101z" fill="#0e0c0c"/><path d="m8.999619 81.998245c-.198732.866867-.397079 1.735497-.595426 2.604119-.52544.026451-1.05088.052894-1.576319.079345-.119548-2.053543-.239096-4.107078-.081918-6.417534.586591.205208.896455.667321 1.251397 1.720734.365338 1.066635.685597 1.541954 1.005858 2.017273.000001 0-.003208-.002182-.003592-.003937z" fill="#323030"/><path d="m17.954018 84.682053c-.589146-.13749-1.225083-.592308-1.907597-1.364594.589218.137444 1.225012.592346 1.907597 1.364594z" fill="#33302f"/><path d="m8.979444 81.703583c-.296494-.17672-.616753-.652039-.958723-1.427979.297179.176056.616067.65271.958723 1.427979z" fill="#282627"/><path d="m55.242226 78.961395c.110866-.535034.472305-1.04853.833744-1.562019.032531.37587.065059.751732.008426 1.367256-.256641.23188-.424121.224098-.84217.194763z" fill="#0e0c0c"/><path d="m58.205963 44.603043c-1.310486 2.513427-2.488647 4.72042-4.132141 6.884063-1.515827-.228107-2.566322-.412861-3.831779-.885051-1.499627-.975586-2.784298-1.663735-4.120881-2.66016-.073272-.515141-.094627-.722012-.120243-1.343529.086312-1.513699.176888-2.612751.58981-3.735649 1.112682-.843388 1.903011-1.662926 3.035949-2.544411 1.031781-.062973 1.720948-.064003 2.410119-.065033.061328.944908.122657 1.889816.179454 2.764885 2.291294-.35865 4.395642-.688042 6.499993-1.017433-.125988.765289-.251976 1.530586-.510281 2.602318z" fill="#9d5d42"/><path d="m52.450607 40.175411c-1.102981.078892-1.792148.079922-3.095154-.09489-.791378-1.276806-.968925-2.377781-1.146472-3.478753-.013855-.21912-.027714-.438243.349342-1.037734 1.712387-.496426 3.033852-.612484 4.731808-.624123 1.152485.034973 1.928482-.034477 2.704479-.103924.59975 1.363918 1.199501 2.727837 1.799251 4.091755-1.643146.389935-3.286296.779869-5.343254 1.247669z" fill="#2e1a11"/><path d="m55.991676 34.402916c-.773063.502518-1.54906.571968-2.732261.236614-.367466-3.532165-.327732-6.659527-.287999-9.786888.647103-1.041971 1.294205-2.083944 1.983143-3.436394 1.005833.446591 1.96983 1.203657 2.967629 2.280243-.621948 3.637463-1.277695 6.955406-1.930512 10.706425z" fill="#ab6b4b"/><path d="m47.747147 36.509956c.639381 1.192784.816928 2.293759 1.265701 3.632515-.519108 1.05732-1.309437 1.876858-2.471367 2.378563-.654907-1.242935-.93821-2.168037-1.221512-3.093139-.175796.408058-.351589.816112-.527386 1.22417-3.440036-.384128-6.880069-.768257-10.543857-1.405353-.073834-1.361679.076076-2.470391.456924-3.834305 4.34718.165108 8.463417.585419 13.041497 1.097549z" fill="#54311f"/><path d="m52.583961 24.900131c.347722 3.079872.307988 6.207234.298966 9.634979-1.290752.41644-2.612217.532498-4.330544.699639-1.632923-.959103-2.868984-1.96928-4.53683-3.332338.804321-1.369782 1.660057-2.82712 2.710414-4.54819.864602-.720586 1.534577-1.177442 2.28381-1.947899 1.115082-.361969 2.150906-.410335 3.574184-.506191z" fill="#e79977"/><path d="m42.364349 31.239925c.014183-.230007.139374-.355367.264565-.48073-.051186.195126-.102368.390251-.264565.48073z" fill="#e79977"/><path d="m51.120544 75.88266c-.081111-.798225.272679-1.52578 1.058819-2.573372 1.218266-.648331 2.004181-.976616 3.014622-1.413734.505627-.309052.700127-.573067.807278-.89814-.000744.002739-.00676.002937.381237.004539 2.127712-.647812 3.867424-1.297226 5.607135-1.94664.449139-.018471.898278-.036941 1.684624-.053039-2.582928 4.526825-6.473522 7.31166-12.553715 6.880386z" fill="#252120"/><path d="m64.230011 68.911026c-.137054-.233704.0494-.500313.55484-.805573.145256.236382-.038185.506829-.55484.805573z" fill="#252120"/><path d="m47.981224 22.592211c-.305859.505268-.564724.701572-.899368 1.175695-.454571.206948-.882736.336918-1.094296.178187-1.579593-1.18517-3.116329-2.427468-4.666496-3.651862.728199-.73472 1.995766-2.179546 2.103657-2.097595 1.607681 1.221121 3.062027 2.644116 4.556503 4.395575z" fill="#b4917e"/><path d="m35.961617 53.491501c-.057473-1.777458-.001114-3.228214.073474-5.11364 1.306862-.288189 2.595494-.141701 3.828846.592644-.31213 1.112789-.568977 1.637718-.800926 2.497101.342125 1.098194.659352 1.86193.972138 2.85934-.004441.23367.047615.698185-.015534.71912-.063152.020932-.191498-.014183-.191498-.014183-1.250892-.40456-2.501781-.80912-3.8665-1.540382z" fill="#c38061"/><path d="m46.173077 48.250168c1.284668.688152 2.569339 1.376301 3.599155 2.415512-.865295.478714-1.475735.606361-2.406547.605991-1.643811-.5084-2.967251-.888778-4.322938-1.537399-.219383-.770172-.406513-1.272106-.593647-1.77404 0 0 .19941-.290127.432663-.240032.550744.072242.859852.135418 1.308262.451664.733773.184009 1.319859.155971 1.929161.121627.02322-.006305.053891-.043323.053891-.043323z" fill="#29120b"/><path d="m44.853729 41.105293c.114651-.861286.290444-1.26934.46624-1.677398.283302.925102.566605 1.850204.899162 3.116989-.041324 1.440731-.1319 2.539783-.461975 4.110004-.400028.425793-.56055.380413-.721077.335034-.040401-1.810467-.080806-3.62093-.18235-5.884629z" fill="#f7c4b0"/><path d="m42.125343 48.040611c.510891.421555.698021.923489.621895 1.78701-.778549.706223-1.293842 1.05085-2.124462 1.356766-.738441-.042888-1.161552-.047062-1.584667-.051239.256851-.524925.513698-1.049854.87735-1.847084.699913-.569889 1.293018-.867477 2.209884-1.245453z" fill="#daa58b"/><path d="m44.631737 46.997742c.564869.037559.725391.082939 1.129684.071796.265114.150345.286469.357216.359741.872357.051915.308273.021244.345291-.340087.266517-.820466-.135383-1.279603-.19199-1.738739-.2486-.300721-.104194-.609829-.16737-1.123414-.321453.305432-.298885.806954-.465843 1.712815-.640617z" fill="#a15d46"/><path d="m44.364861 68.416557c-4.383786-.871986-6.537468-4.145103-8.533967-8.085609 2.452008.910129 5.072892 2.136593 8.271573 3.138611 1.017444-.22852 1.457084-.232598 2.079155-.046315.833656-.185966 1.484886-.562297 2.443737-1.043224 1.330326-.861851 2.353031-1.619106 3.375736-2.376366 1.008671-.638114 1.948562-1.488075 3.048473-1.845207.832569-.270332 1.869335.088211 2.608177.706688-3.350029 5.313744-5.370536 11.717636-13.292884 9.551422z" fill="#210f09"/><path d="m45.999195 63.23288c-.439644.004081-.879284.008159-1.647076.044448-.375904-.386474-.42366-.805152-.175834-1.721549.778465-1.455193 1.261352-2.412674 2.026012-3.548756.795799-.858765 1.309826-1.538929 1.797764-2.510342-.022011-.680576-.017933-1.069908.393372-1.479614 1.759128.029804 3.11103.079979 4.462936.130154.131874.299404.3372.534694.839523.782589-.424884 1.509075-1.073314 2.941425-1.708271 4.723812-1.009231 1.107292-2.031936 1.864547-3.694645 2.586094-1.191265.307247-1.742523.650203-2.293781.993164z" fill="#a76e52"/><path d="m45.920525 58.185623c-.482888.957482-.965775 1.914963-1.760926 3.05529-1.62278-1.693626-2.933284-3.570095-4.287635-5.827797-.043847-.381233.084499-.346118.458927-.375961.792656-.026672 1.210888-.023502 1.679805.304726 1.075859 1.069073 2.101029 1.813095 3.324173 2.623123.197972.066013.585656.220619.585656.220619z" fill="#e09e7e"/><path d="m62.126743 68.72699c-1.876819.977737-3.616531 1.627151-5.613613 1.996887.635029-1.092156 1.52742-1.904625 2.419815-2.717102 1.164986-.910339 2.329975-1.820679 3.780007-2.873367.040325.993515-.204388 2.129386-.586209 3.593582z" fill="#171515"/><path d="m63.280342 64.96759c-.113079-.521637.063732-1.074066.47702-1.804222.09528.47266-.045921 1.123047-.47702 1.804222z" fill="#171515"/><path d="m53.115101 53.950146c-1.610638.1469-2.96254.096725-4.707031.045856-.392586-.00069-.37563-.048473-.400902-.3717-.123886-.957024-.222496-1.590817-.32111-2.224613.610439-.127648 1.220879-.255295 2.301132-.446572 1.52031.121128 2.570805.305882 3.830025.74955-.008648.856079-.226013 1.453243-.702114 2.247479z" fill="#522b1b"/><path d="m58.952873 67.57267c-.912323 1.246582-1.804714 2.059051-2.827739 3.149605-.130631.278076-.124615.277878-.344578.387939-.491089.315567-.688134.576943-.8111.894173-.785912.328285-1.571827.65657-2.677433 1.022697-2.771511-1.291938-5.223332-2.621711-7.801155-4.281006 7.796341 1.836693 9.816848-4.567199 13.221931-9.54911.596207.291447.930302.790867 1.311695 1.603508.014301 2.321514-.018696 4.329804-.071621 6.772194z" fill="#411d0e"/><path d="m55.193985 71.895554c-.101563-.208397.095482-.469773.587318-.788079.112809.215012-.081691.479027-.587318.788079z" fill="#171515"/><path d="m41.960007 55.016823c-.418228-.00317-.83646-.00634-1.565964-.000603-.311279.008911-.363335-.455604-.387863-.726616-.024525-.271011-.041882-.363704.405052-.323719 2.83836.020538 5.229786.001091 7.621208-.018356 0 0-.016956.047783-.031593.068847-.018719.410397-.022797.799729-.388069 1.465359-1.13583.27528-1.910473.274262-2.913246.056225-1.065266-.31839-1.902394-.419765-2.739525-.521137z" fill="#d68b6c"/><path d="m39.063011 51.467606c.398213-.330281.821324-.326107 1.536255.006469-.017113 1.036209-.326042 1.744015-.634972 2.451825.000004 0 .017361.092693.046326.130035-.288257-.726399-.605484-1.490135-.947609-2.588329z" fill="#5f3924"/><path d="m40.411232 53.965885c-.138008-.747795.170921-1.455601.503361-2.453098.538803-.634316 1.054096-.978943 1.864895-1.416924 1.618946.28703 2.942386.667408 4.586197 1.175808.418987.761814.517597 1.395607.641483 2.352631-2.36615.342674-4.757576.362121-7.595936.341583z" fill="#8f533f"/><path d="m44.190025 48.171864c.311447-.155442.770584-.098835 1.567833.042854-.247974.113117-.83406.141155-1.567833-.042854z" fill="#803e2a"/><path d="m46.181622 63.423244c.368831-.533325.920089-.876281 1.80373-1.078933-.318844.516636-.970074.892967-1.80373 1.078933z" fill="#664533"/><path d="m44.927662 55.754974c.774643.001023 1.549286.002041 2.711208.018006-.126747.695114-.640774 1.375278-1.436573 2.234043-.281772.1786-.669456.023994-.914871-.397961-.283531-.899334-.321648-1.376709-.359764-1.854088z" fill="#472a1c"/><path d="m44.699532 55.537956c.266246.694397.304363 1.171772.389923 2.005097-.97773-.388077-2.0029-1.132099-3.078759-2.201176.786442-.223682 1.62357-.122307 2.688836.196079z" fill="#a76e52"/></svg>