<svg version="1.1" id="Layer_1" xmlns="http://www.w3.org/2000/svg" xmlns:xlink="http://www.w3.org/1999/xlink" x="0px" y="0px"
	 width="100%" viewBox="0 0 90 90" enable-background="new 0 0 90 90" xml:space="preserve">
<path fill="#F3F2F2" opacity="1.000000" stroke="none" 
	d="
M1.000000,83.000000 
	C1.000000,55.714191 1.000000,28.428383 1.000000,1.071288 
	C30.900171,1.071288 60.800552,1.071288 91.000000,1.071288 
	C91.000000,27.353474 91.000000,53.708076 90.749138,80.390579 
	C90.002121,80.145355 89.505966,79.572227 89.099350,78.650101 
	C88.909477,77.485725 88.630058,76.670349 88.283821,75.485512 
	C86.913673,73.407990 85.954330,71.087822 84.234329,70.121231 
	C80.812843,68.198471 76.972809,67.020493 73.369110,65.369324 
	C73.432503,65.203850 73.185005,64.950172 73.208542,64.616592 
	C72.492554,63.855766 71.753029,63.428520 70.891830,62.622391 
	C71.088982,57.793522 67.925011,58.033745 64.819695,57.795315 
	C64.642555,57.634197 64.164124,57.612473 63.967583,57.348934 
	C62.545479,56.627487 61.319912,56.169579 60.166809,55.442856 
	C60.251423,54.802753 60.263573,54.431473 60.533020,53.826183 
	C61.009300,51.764187 61.228287,49.936195 61.638184,47.839828 
	C62.750187,43.506142 63.671272,39.440830 64.592361,35.375519 
	C63.060905,33.393314 62.404369,31.124084 61.921524,28.818480 
	C61.654041,27.541262 61.677063,26.203207 61.550179,24.548622 
	C60.204628,19.740650 58.547661,15.583772 52.663979,14.793856 
	C47.762146,13.867923 43.116077,12.374166 38.786957,16.267334 
	C36.951065,18.334963 35.354721,20.132214 33.531223,22.040112 
	C32.911114,22.761024 32.518158,23.371290 32.069820,24.416426 
	C31.629992,27.921463 31.254303,30.992764 30.857565,34.061340 
	C30.645962,35.698009 30.397993,37.329983 30.026110,39.267586 
	C30.254122,40.716934 30.622465,41.862770 30.950218,43.330463 
	C30.906734,44.079441 30.903841,44.506554 30.947729,44.964729 
	C30.994511,44.995792 30.916277,44.915222 30.780552,45.002560 
	C30.503139,45.451557 30.622478,45.681419 31.021202,46.113785 
	C31.262293,47.278976 31.485025,48.109875 31.701117,49.362587 
	C31.798801,51.462482 31.903126,53.140564 31.762590,54.926144 
	C31.326324,55.317101 31.134918,55.600555 30.597916,55.995594 
	C27.799337,57.559334 24.628454,58.476673 23.057259,60.585735 
	C20.536753,63.969097 18.281588,67.066711 13.930863,68.275246 
	C11.457911,68.962181 9.227712,70.523018 6.540033,71.813591 
	C4.461250,75.624596 2.730625,79.312294 1.000000,83.000000 
z"/>
<path fill="#2A2728" opacity="1.000000" stroke="none" 
	d="
M73.305710,65.534790 
	C76.972809,67.020493 80.812843,68.198471 84.234329,70.121231 
	C85.954330,71.087822 86.913673,73.407990 87.904434,75.553055 
	C86.902420,76.410835 85.708214,76.732689 85.603302,77.268028 
	C84.755447,81.594452 81.144775,82.434067 77.932770,84.204544 
	C74.947090,85.850281 72.618111,88.687408 70.000000,91.000000 
	C65.975456,91.000000 61.950912,91.000000 57.461594,90.665894 
	C56.993042,89.886322 56.989265,89.440849 56.990997,88.579620 
	C56.992886,86.777748 56.989269,85.391655 56.955162,83.659027 
	C56.618805,82.203728 56.312935,81.094955 56.355247,79.954987 
	C58.951645,78.535751 61.469448,77.443726 63.389336,75.695183 
	C66.882141,72.514091 70.019829,68.943085 73.305710,65.534790 
z"/>
<path fill="#2D2A29" opacity="1.000000" stroke="none" 
	d="
M6.888190,71.690292 
	C9.227712,70.523018 11.457911,68.962181 13.930863,68.275246 
	C18.281588,67.066711 20.536753,63.969097 23.057259,60.585735 
	C24.628454,58.476673 27.799337,57.559334 30.612486,56.382458 
	C30.209528,59.853798 29.377331,63.067730 33.312054,65.374184 
	C37.990368,70.101128 42.510529,74.543266 47.256874,79.138000 
	C47.653275,79.611267 47.823494,79.931931 48.005798,80.420181 
	C48.017879,80.587769 48.024151,80.923744 47.868877,81.023285 
	C47.645157,81.220924 47.497219,81.370857 47.521687,81.408386 
	C47.643452,81.595154 47.810589,81.752335 47.973152,82.374863 
	C47.989704,85.553185 47.994850,88.276596 48.000000,91.000000 
	C47.555553,91.000000 47.111111,91.000000 46.333958,90.547546 
	C45.994152,87.808739 46.261898,85.474976 45.878662,83.253510 
	C45.642216,81.882896 44.413559,80.683464 43.630356,79.407173 
	C42.417912,80.285233 41.132442,81.079987 40.011570,82.062515 
	C38.621807,83.280746 37.368385,84.654510 36.049416,85.576180 
	C36.279377,82.710945 36.516003,80.230621 36.795284,77.405762 
	C34.414577,72.091690 29.991753,70.492844 24.537914,69.944099 
	C20.438416,70.598343 16.719389,71.299171 12.616591,72.007133 
	C10.490575,72.345177 8.748328,72.676094 6.978592,72.677612 
	C6.930132,72.128899 6.909161,71.909599 6.888190,71.690292 
z"/>
<path fill="#343130" opacity="1.000000" stroke="none" 
	d="
M36.056072,85.961098 
	C37.368385,84.654510 38.621807,83.280746 40.011570,82.062515 
	C41.132442,81.079987 42.417912,80.285233 43.630356,79.407173 
	C44.413559,80.683464 45.642216,81.882896 45.878662,83.253510 
	C46.261898,85.474976 45.994152,87.808739 46.000626,90.547546 
	C41.975456,91.000000 37.950912,91.000000 33.402298,90.658813 
	C31.252150,89.545181 29.626076,88.772743 27.628687,87.955429 
	C24.171850,86.940170 21.086329,85.969780 17.954018,84.682053 
	C17.271433,83.909805 16.635639,83.454903 15.621241,82.953156 
	C13.494277,82.604622 11.745919,82.302925 9.747978,82.000183 
	C9.498397,81.999138 8.999234,81.996483 8.999619,81.998245 
	C9.000003,82.000000 9.003212,82.002182 8.979445,81.703583 
	C8.636788,80.928314 8.317900,80.451660 7.975643,79.684303 
	C7.642411,78.931496 7.332547,78.469383 7.016001,77.590469 
	C7.008238,75.784775 7.007159,74.395889 7.006081,73.007004 
	C8.748328,72.676094 10.490575,72.345177 12.841661,72.204132 
	C12.347164,74.005836 11.243829,75.617691 9.667934,77.919899 
	C15.791660,80.460106 21.407694,83.086945 27.240751,85.077980 
	C29.962549,86.007042 33.104538,85.705086 36.056072,85.961098 
z"/>
<path fill="#282627" opacity="1.000000" stroke="none" 
	d="
M8.999234,81.996483 
	C8.999234,81.996483 9.498397,81.999138 9.750414,82.382950 
	C9.821983,86.942451 13.025377,87.860138 16.000660,89.330902 
	C16.000168,90.109825 16.000084,90.554909 16.000000,91.000000 
	C11.108769,91.000000 6.217540,91.000000 1.000000,91.000000 
	C1.000000,88.672447 1.000000,86.330956 1.000000,83.494736 
	C2.730625,79.312294 4.461250,75.624596 6.540032,71.813591 
	C6.909161,71.909599 6.930132,72.128899 6.978592,72.677605 
	C7.007159,74.395889 7.008238,75.784775 6.739274,77.847374 
	C6.588778,80.574631 6.708326,82.628166 6.827874,84.681709 
	C7.353313,84.655258 7.878753,84.628815 8.404193,84.602364 
	C8.602540,83.733742 8.800887,82.865112 8.999234,81.996483 
z"/>
<path fill="#1D1B1B" opacity="1.000000" stroke="none" 
	d="
M70.444168,91.000000 
	C72.618111,88.687408 74.947090,85.850281 77.932770,84.204544 
	C81.144775,82.434067 84.755447,81.594452 85.603302,77.268028 
	C85.708214,76.732689 86.902420,76.410835 87.971252,75.922516 
	C88.630058,76.670349 88.909477,77.485725 88.743927,78.720490 
	C87.862930,80.423805 87.426888,81.707726 86.983200,83.360321 
	C86.649559,85.151695 86.323555,86.574387 85.692589,87.953659 
	C84.658241,87.324501 83.928871,86.738754 83.800690,86.635818 
	C82.043274,87.958023 80.021637,89.479012 78.000000,91.000000 
	C75.629440,91.000000 73.258888,91.000000 70.444168,91.000000 
z"/>
<path fill="#33302F" opacity="1.000000" stroke="none" 
	d="
M48.024151,80.923744 
	C48.024151,80.923744 48.017879,80.587769 48.405495,80.357056 
	C50.859291,79.730843 52.925472,79.335342 55.242226,78.961395 
	C55.660275,78.990730 55.827755,78.998512 55.998360,79.251259 
	C56.001480,79.496223 56.007061,79.986176 56.007065,79.986176 
	C56.312935,81.094955 56.618805,82.203728 56.698399,83.896667 
	C56.643242,85.985680 56.814365,87.490532 56.985485,88.995384 
	C56.989265,89.440849 56.993042,89.886322 56.998413,90.665894 
	C54.299988,91.000000 51.599972,91.000000 48.449978,91.000000 
	C47.994850,88.276596 47.989704,85.553185 47.984428,82.126007 
	C47.997589,81.256073 48.010872,81.089905 48.024151,80.923744 
z"/>
<path fill="#323030" opacity="1.000000" stroke="none" 
	d="
M16.001068,88.997063 
	C13.025377,87.860138 9.821983,86.942451 9.999996,82.383987 
	C11.745919,82.302925 13.494277,82.604622 15.667817,83.270615 
	C16.728935,84.089745 17.364872,84.544563 18.000807,84.999390 
	C21.086329,85.969780 24.171850,86.940170 27.628687,88.330383 
	C28.000000,89.500145 28.000000,90.250069 28.000000,91.000000 
	C24.969406,91.000000 21.938814,91.000000 18.408524,90.682190 
	C17.272907,89.908600 16.636988,89.452835 16.001068,88.997063 
z"/>
<path fill="#080607" opacity="1.000000" stroke="none" 
	d="
M85.997559,87.997078 
	C86.323555,86.574387 86.649559,85.151695 87.309212,83.394333 
	C88.761902,83.706451 89.880951,84.353226 91.000000,85.000000 
	C91.000000,86.904778 91.000000,88.809555 91.000000,91.000000 
	C89.671463,91.000000 88.335693,91.000000 86.500793,90.624672 
	C86.000290,89.498589 85.998924,88.747833 85.997559,87.997078 
z"/>
<path fill="#100F0F" opacity="1.000000" stroke="none" 
	d="
M85.692589,87.953659 
	C85.998924,88.747833 86.000290,89.498589 86.000832,90.624672 
	C83.629440,91.000000 81.258888,91.000000 78.444168,91.000000 
	C80.021637,89.479012 82.043274,87.958023 83.800690,86.635818 
	C83.928871,86.738754 84.658241,87.324501 85.692589,87.953659 
z"/>
<path fill="#100F0F" opacity="1.000000" stroke="none" 
	d="
M91.000000,84.600006 
	C89.880951,84.353226 88.761902,83.706451 87.316849,83.025650 
	C87.426888,81.707726 87.862930,80.423805 88.654388,79.069496 
	C89.505966,79.572227 90.002121,80.145355 90.749138,80.859238 
	C91.000000,82.066673 91.000000,83.133339 91.000000,84.600006 
z"/>
<path fill="#33302F" opacity="1.000000" stroke="none" 
	d="
M28.416666,91.000000 
	C28.000000,90.250069 28.000000,89.500145 28.000000,88.375259 
	C29.626076,88.772743 31.252150,89.545181 32.939110,90.658813 
	C31.611111,91.000000 30.222221,91.000000 28.416666,91.000000 
z"/>
<path fill="#2A2829" opacity="1.000000" stroke="none" 
	d="
M16.000660,89.330902 
	C16.636988,89.452835 17.272907,89.908600 17.954414,90.682190 
	C17.555555,91.000000 17.111111,91.000000 16.333332,91.000000 
	C16.000084,90.554909 16.000168,90.109825 16.000660,89.330902 
z"/>
<path fill="#8A6858" opacity="1.000000" stroke="none" 
	d="
M61.569145,24.892574 
	C61.677063,26.203207 61.654041,27.541262 61.921524,28.818480 
	C62.404369,31.124084 63.060905,33.393314 64.592361,35.375519 
	C63.671272,39.440830 62.750187,43.506142 61.322479,47.808685 
	C59.901787,47.000439 58.987713,45.954960 58.205963,44.603043 
	C58.464268,43.531311 58.590256,42.766014 58.716244,42.000725 
	C56.611893,42.330116 54.507545,42.659508 52.216251,43.018158 
	C52.159454,42.143089 52.098125,41.198181 52.450607,40.175411 
	C54.507565,39.707611 56.150715,39.317677 57.793861,38.927742 
	C57.194111,37.563824 56.594360,36.199905 55.991676,34.402916 
	C56.644493,30.651897 57.300240,27.333954 58.243191,24.150455 
	C59.543312,24.487459 60.556229,24.690016 61.569145,24.892574 
z"/>
<path fill="#F2AA89" opacity="1.000000" stroke="none" 
	d="
M32.125202,23.981556 
	C32.518158,23.371290 32.911114,22.761024 33.951187,22.046406 
	C38.705738,23.658199 42.813168,25.374344 46.725967,27.354221 
	C45.675610,29.075291 44.819874,30.532629 44.015553,31.902411 
	C45.683399,33.265469 46.919460,34.275646 48.161461,35.615112 
	C48.181267,36.163525 48.195126,36.382648 47.747147,36.509956 
	C43.169067,35.997826 39.052830,35.577515 34.990700,34.780540 
	C35.409100,30.555101 36.506870,26.500849 32.125202,23.981556 
M42.475361,31.344572 
	C42.526546,31.149446 42.577728,30.954321 42.628914,30.759195 
	C42.503723,30.884558 42.378532,31.009918 42.475361,31.344572 
z"/>
<path fill="#080607" opacity="1.000000" stroke="none" 
	d="
M54.991653,78.939850 
	C52.925472,79.335342 50.859291,79.730843 48.393414,80.189468 
	C47.823494,79.931931 47.653275,79.611267 47.399895,78.869232 
	C48.439709,77.569244 49.562675,76.690613 51.120544,75.882660 
	C57.200737,76.313934 61.091331,73.529099 64.005959,69.001633 
	C64.000450,68.998611 64.000732,69.009834 64.230011,68.911026 
	C64.746666,68.612282 64.930107,68.341835 65.004135,68.000183 
	C64.998657,67.999481 65.000893,68.010941 65.372742,68.015747 
	C68.224724,66.997101 70.704865,65.973640 73.185005,64.950172 
	C73.185005,64.950172 73.432503,65.203850 73.369110,65.369324 
	C70.019829,68.943085 66.882141,72.514091 63.389336,75.695183 
	C61.469448,77.443726 58.951645,78.535751 56.355247,79.954987 
	C56.007061,79.986176 56.001480,79.496223 56.087517,79.011597 
	C56.141029,78.151108 56.108501,77.775246 56.075970,77.399376 
	C55.714531,77.912865 55.353092,78.426361 54.991653,78.939850 
z"/>
<path fill="#A57F6B" opacity="1.000000" stroke="none" 
	d="
M46.920597,27.090490 
	C42.813168,25.374344 38.705738,23.658199 34.178345,21.935760 
	C35.354721,20.132214 36.951065,18.334963 39.195862,16.269913 
	C41.465099,15.760163 43.259914,14.963556 44.666325,15.404836 
	C46.835102,16.085320 48.737827,17.613745 50.753407,18.782490 
	C49.830658,20.177773 48.907909,21.573051 47.981224,22.592211 
	C46.486748,20.840752 45.032402,19.417757 43.424721,18.196636 
	C43.316830,18.114685 42.049263,19.559511 41.321064,20.294231 
	C42.871231,21.518625 44.407967,22.760923 45.987560,23.946093 
	C46.199120,24.104824 46.627285,23.974854 47.150715,24.222107 
	C47.927200,24.674665 48.508121,24.883694 49.009777,25.406322 
	C48.260544,26.176779 47.590569,26.633635 46.920597,27.090490 
z"/>
<path fill="#E59A7B" opacity="1.000000" stroke="none" 
	d="
M30.990808,43.008602 
	C30.622465,41.862770 30.254122,40.716934 30.411236,39.281059 
	C31.966120,38.991924 32.995548,38.992832 34.248726,39.246712 
	C37.912514,39.883808 41.352547,40.267937 44.853729,41.105293 
	C44.955273,43.368992 44.995678,45.179455 44.631737,46.997742 
	C43.725876,47.172516 43.224354,47.339474 42.685669,47.588264 
	C42.648510,47.670105 42.449100,47.960232 42.125343,48.040611 
	C41.208477,48.418587 40.615372,48.716175 39.970741,48.698208 
	C38.630585,48.236160 37.341953,48.089672 35.896332,47.681030 
	C34.847984,46.592770 33.956619,45.766659 33.051964,44.620277 
	C32.356049,43.869534 31.673429,43.439068 30.990808,43.008602 
z"/>
<path fill="#815E4D" opacity="1.000000" stroke="none" 
	d="
M47.985161,22.968330 
	C48.907909,21.573051 49.830658,20.177773 50.753407,18.782490 
	C48.737827,17.613745 46.835102,16.085320 44.666325,15.404836 
	C43.259914,14.963556 41.465099,15.760163 39.435410,15.999537 
	C43.116077,12.374166 47.762146,13.867923 52.777527,15.130997 
	C53.822136,17.509195 54.409267,19.307484 54.954559,21.416248 
	C54.265621,22.768698 53.618519,23.810671 52.583961,24.900131 
	C51.160683,24.995987 50.124859,25.044353 49.089039,25.092720 
	C48.508121,24.883694 47.927200,24.674665 47.277424,24.011440 
	C47.416500,23.293783 47.675365,23.097479 47.985161,22.968330 
z"/>
<path fill="#664533" opacity="1.000000" stroke="none" 
	d="
M32.007450,54.818642 
	C31.903126,53.140564 31.798801,51.462482 31.998455,49.536087 
	C33.484215,50.580116 34.666000,51.872456 35.961617,53.491501 
	C37.326336,54.222763 38.577225,54.627323 39.871964,55.413116 
	C41.226315,57.670818 42.536819,59.547287 43.864017,61.738625 
	C43.928459,62.472176 43.976215,62.890854 43.774315,63.501770 
	C40.903786,62.467541 38.282902,61.241077 35.535610,60.071007 
	C35.409199,60.127396 35.133713,60.100098 35.097809,59.731789 
	C34.043758,57.848537 33.025604,56.333588 32.007450,54.818642 
z"/>
<path fill="#C38061" opacity="1.000000" stroke="none" 
	d="
M34.024979,38.993740 
	C32.995548,38.992832 31.966120,38.991924 30.551563,38.977547 
	C30.397993,37.329983 30.645962,35.698009 30.857565,34.061340 
	C31.254303,30.992764 31.629992,27.921463 32.069820,24.416428 
	C36.506870,26.500849 35.409100,30.555101 34.759766,35.035748 
	C34.324802,36.776321 34.174892,37.885033 34.024979,38.993740 
z"/>
<path fill="#0C0B0C" opacity="1.000000" stroke="none" 
	d="
M64.996834,57.956432 
	C67.925011,58.033745 71.088982,57.793522 70.528152,62.592804 
	C68.524399,64.631706 66.762642,66.321327 65.000893,68.010941 
	C65.000893,68.010941 64.998657,67.999481 64.779373,68.104752 
	C64.279411,68.410713 64.092957,68.677322 64.000732,69.009834 
	C64.000732,69.009834 64.000450,68.998611 63.668751,68.999252 
	C62.887913,69.018372 62.438774,69.036842 62.126743,68.726990 
	C62.508564,67.262794 62.753277,66.126923 62.999130,64.995766 
	C63.000267,65.000488 62.990444,64.998375 63.280342,64.967590 
	C63.711441,64.286415 63.852642,63.636028 63.995140,62.610756 
	C63.999969,61.486111 64.003502,60.736347 64.248581,59.811798 
	C64.659035,59.076817 64.827934,58.516624 64.996834,57.956432 
z"/>
<path fill="#623D2B" opacity="1.000000" stroke="none" 
	d="
M58.073639,44.909481 
	C58.987713,45.954960 59.901787,47.000439 61.131565,48.077065 
	C61.228287,49.936195 61.009300,51.764187 60.204853,53.709515 
	C57.719406,54.220078 55.819420,54.613304 53.695889,54.929810 
	C53.193569,54.681915 52.988243,54.446625 53.115101,53.950146 
	C53.591202,53.155910 53.808567,52.558746 54.282543,51.746021 
	C55.717316,49.323463 56.895477,47.116470 58.073639,44.909481 
z"/>
<path fill="#080605" opacity="1.000000" stroke="none" 
	d="
M64.007034,59.986584 
	C64.003502,60.736347 63.999969,61.486111 63.758659,62.788483 
	C63.344074,63.893524 63.167263,64.445953 62.990448,64.998375 
	C62.990444,64.998375 63.000267,65.000488 62.714088,65.138123 
	C61.262920,66.186096 60.097931,67.096436 58.952873,67.572670 
	C59.005798,65.130280 59.038795,63.121990 59.327549,60.809402 
	C59.753654,58.907295 59.924004,57.309486 60.094353,55.711674 
	C61.319912,56.169579 62.545479,56.627487 63.921497,57.743176 
	C64.050316,58.929497 64.028679,59.458042 64.007034,59.986584 
z"/>
<path fill="#412F26" opacity="1.000000" stroke="none" 
	d="
M54.996399,21.105772 
	C54.409267,19.307484 53.822136,17.509195 53.121460,15.373765 
	C58.547661,15.583772 60.204628,19.740650 61.550182,24.548622 
	C60.556229,24.690016 59.543312,24.487459 58.209389,23.830936 
	C56.924389,22.619905 55.960392,21.862839 54.996399,21.105772 
z"/>
<path fill="#0A0807" opacity="1.000000" stroke="none" 
	d="
M31.762590,54.926144 
	C33.025604,56.333588 34.043758,57.848537 34.907364,60.001995 
	C34.219845,62.123463 33.686874,63.606419 33.153900,65.089378 
	C29.377331,63.067730 30.209528,59.853798 30.958084,56.270874 
	C31.134918,55.600555 31.326324,55.317101 31.762590,54.926144 
z"/>
<path fill="#322018" opacity="1.000000" stroke="none" 
	d="
M60.166813,55.442856 
	C59.924004,57.309486 59.753654,58.907295 59.280251,60.496181 
	C58.643101,59.987835 58.309006,59.488415 57.919853,58.657166 
	C56.918903,58.246658 55.882137,57.888115 55.049568,58.158447 
	C53.949657,58.515579 53.009766,59.365540 51.987621,59.653618 
	C52.622578,57.871235 53.271008,56.438885 53.919434,55.006531 
	C55.819420,54.613304 57.719406,54.220078 59.947556,53.943523 
	C60.263573,54.431473 60.251423,54.802753 60.166813,55.442856 
z"/>
<path fill="#A56F54" opacity="1.000000" stroke="none" 
	d="
M35.847786,53.164795 
	C34.666000,51.872456 33.484215,50.580116 32.005096,49.114273 
	C31.485025,48.109875 31.262293,47.278976 31.023024,45.896187 
	C31.006487,45.344292 30.916277,44.915222 30.916277,44.915222 
	C30.916277,44.915222 30.994511,44.995792 31.308416,44.980438 
	C32.103302,44.956905 32.584278,44.948730 33.065258,44.940552 
	C33.956619,45.766659 34.847984,46.592770 35.878105,48.115707 
	C35.960503,50.263287 35.904144,51.714043 35.847786,53.164795 
z"/>
<path fill="#252120" opacity="1.000000" stroke="none" 
	d="
M65.372742,68.015747 
	C66.762642,66.321327 68.524399,64.631706 70.649826,62.971684 
	C71.753029,63.428520 72.492554,63.855766 73.208542,64.616592 
	C70.704865,65.973640 68.224724,66.997101 65.372742,68.015747 
z"/>
<path fill="#C38061" opacity="1.000000" stroke="none" 
	d="
M33.051964,44.620277 
	C32.584278,44.948730 32.103302,44.956905 31.261635,44.949375 
	C30.903841,44.506554 30.906734,44.079441 30.950218,43.330463 
	C31.673429,43.439068 32.356049,43.869534 33.051964,44.620277 
z"/>
<path fill="#171515" opacity="1.000000" stroke="none" 
	d="
M64.248581,59.811798 
	C64.028679,59.458042 64.050316,58.929497 64.118042,58.006714 
	C64.164124,57.612473 64.642555,57.634197 64.819695,57.795315 
	C64.827934,58.516624 64.659035,59.076817 64.248581,59.811798 
z"/>
<path fill="#C38061" opacity="1.000000" stroke="none" 
	d="
M30.780552,45.002560 
	C30.916277,44.915222 31.006487,45.344292 31.004665,45.561890 
	C30.622478,45.681419 30.503139,45.451557 30.780552,45.002560 
z"/>
<path fill="#2C2828" opacity="1.000000" stroke="none" 
	d="
M56.990997,88.579620 
	C56.814365,87.490532 56.643242,85.985680 56.728882,84.243195 
	C56.989269,85.391655 56.992886,86.777748 56.990997,88.579620 
z"/>
<path fill="#373332" opacity="1.000000" stroke="none" 
	d="
M36.049416,85.576180 
	C33.104538,85.705086 29.962549,86.007042 27.240751,85.077980 
	C21.407694,83.086945 15.791660,80.460106 9.667934,77.919899 
	C11.243829,75.617691 12.347164,74.005836 13.225431,72.196991 
	C16.719389,71.299171 20.438416,70.598343 24.700115,70.246826 
	C29.079401,72.980850 32.916016,75.365578 36.752625,77.750305 
	C36.516003,80.230621 36.279377,82.710945 36.049416,85.576180 
z"/>
<path fill="#B07359" opacity="1.000000" stroke="none" 
	d="
M33.312050,65.374184 
	C33.686874,63.606419 34.219845,62.123463 34.943264,60.370300 
	C35.133713,60.100098 35.409199,60.127396 35.704483,60.387337 
	C37.827393,64.271454 39.981075,67.544571 44.490868,68.746078 
	C47.068691,70.405373 49.520512,71.735146 51.859673,73.347122 
	C51.393223,74.356880 51.039433,75.084435 50.685646,75.811981 
	C49.562675,76.690613 48.439709,77.569244 47.173717,78.716644 
	C42.510529,74.543266 37.990368,70.101128 33.312050,65.374184 
z"/>
<path fill="#0A0909" opacity="1.000000" stroke="none" 
	d="
M36.795284,77.405762 
	C32.916016,75.365578 29.079401,72.980850 25.080589,70.293411 
	C29.991753,70.492844 34.414577,72.091690 36.795284,77.405762 
z"/>
<path fill="#0E0C0C" opacity="1.000000" stroke="none" 
	d="
M47.868877,81.023285 
	C48.010872,81.089905 47.997589,81.256073 47.973030,81.671082 
	C47.810589,81.752335 47.643452,81.595154 47.521687,81.408386 
	C47.497219,81.370857 47.645157,81.220924 47.868877,81.023285 
z"/>
<path fill="#323030" opacity="1.000000" stroke="none" 
	d="
M8.999619,81.998245 
	C8.800887,82.865112 8.602540,83.733742 8.404193,84.602364 
	C7.878753,84.628815 7.353313,84.655258 6.827874,84.681709 
	C6.708326,82.628166 6.588778,80.574631 6.745956,78.264175 
	C7.332547,78.469383 7.642411,78.931496 7.997353,79.984909 
	C8.362691,81.051544 8.682950,81.526863 9.003211,82.002182 
	C9.003212,82.002182 9.000003,82.000000 8.999619,81.998245 
z"/>
<path fill="#33302F" opacity="1.000000" stroke="none" 
	d="
M17.954018,84.682053 
	C17.364872,84.544563 16.728935,84.089745 16.046421,83.317459 
	C16.635639,83.454903 17.271433,83.909805 17.954018,84.682053 
z"/>
<path fill="#282627" opacity="1.000000" stroke="none" 
	d="
M8.979444,81.703583 
	C8.682950,81.526863 8.362691,81.051544 8.020721,80.275604 
	C8.317900,80.451660 8.636788,80.928314 8.979444,81.703583 
z"/>
<path fill="#0E0C0C" opacity="1.000000" stroke="none" 
	d="
M55.242226,78.961395 
	C55.353092,78.426361 55.714531,77.912865 56.075970,77.399376 
	C56.108501,77.775246 56.141029,78.151108 56.084396,78.766632 
	C55.827755,78.998512 55.660275,78.990730 55.242226,78.961395 
z"/>
<path fill="#9D5D42" opacity="1.000000" stroke="none" 
	d="
M58.205963,44.603043 
	C56.895477,47.116470 55.717316,49.323463 54.073822,51.487106 
	C52.557995,51.258999 51.507500,51.074245 50.242043,50.602055 
	C48.742416,49.626469 47.457745,48.938320 46.121162,47.941895 
	C46.047890,47.426754 46.026535,47.219883 46.000919,46.598366 
	C46.087231,45.084667 46.177807,43.985615 46.590729,42.862717 
	C47.703411,42.019329 48.493740,41.199791 49.626678,40.318306 
	C50.658459,40.255333 51.347626,40.254303 52.036797,40.253273 
	C52.098125,41.198181 52.159454,42.143089 52.216251,43.018158 
	C54.507545,42.659508 56.611893,42.330116 58.716244,42.000725 
	C58.590256,42.766014 58.464268,43.531311 58.205963,44.603043 
z"/>
<path fill="#2E1A11" opacity="1.000000" stroke="none" 
	d="
M52.450607,40.175411 
	C51.347626,40.254303 50.658459,40.255333 49.355453,40.080521 
	C48.564075,38.803715 48.386528,37.702740 48.208981,36.601768 
	C48.195126,36.382648 48.181267,36.163525 48.558323,35.564034 
	C50.270710,35.067608 51.592175,34.951550 53.290131,34.939911 
	C54.442616,34.974884 55.218613,34.905434 55.994610,34.835987 
	C56.594360,36.199905 57.194111,37.563824 57.793861,38.927742 
	C56.150715,39.317677 54.507565,39.707611 52.450607,40.175411 
z"/>
<path fill="#AB6B4B" opacity="1.000000" stroke="none" 
	d="
M55.991676,34.402916 
	C55.218613,34.905434 54.442616,34.974884 53.259415,34.639530 
	C52.891949,31.107365 52.931683,27.980003 52.971416,24.852642 
	C53.618519,23.810671 54.265621,22.768698 54.954559,21.416248 
	C55.960392,21.862839 56.924389,22.619905 57.922188,23.696491 
	C57.300240,27.333954 56.644493,30.651897 55.991676,34.402916 
z"/>
<path fill="#54311F" opacity="1.000000" stroke="none" 
	d="
M47.747147,36.509956 
	C48.386528,37.702740 48.564075,38.803715 49.012848,40.142471 
	C48.493740,41.199791 47.703411,42.019329 46.541481,42.521034 
	C45.886574,41.278099 45.603271,40.352997 45.319969,39.427895 
	C45.144173,39.835953 44.968380,40.244007 44.792583,40.652065 
	C41.352547,40.267937 37.912514,39.883808 34.248726,39.246712 
	C34.174892,37.885033 34.324802,36.776321 34.705650,35.412407 
	C39.052830,35.577515 43.169067,35.997826 47.747147,36.509956 
z"/>
<path fill="#E79977" opacity="1.000000" stroke="none" 
	d="
M52.583961,24.900131 
	C52.931683,27.980003 52.891949,31.107365 52.882927,34.535110 
	C51.592175,34.951550 50.270710,35.067608 48.552383,35.234749 
	C46.919460,34.275646 45.683399,33.265469 44.015553,31.902411 
	C44.819874,30.532629 45.675610,29.075291 46.725967,27.354221 
	C47.590569,26.633635 48.260544,26.176779 49.009777,25.406322 
	C50.124859,25.044353 51.160683,24.995987 52.583961,24.900131 
z"/>
<path fill="#E79977" opacity="1.000000" stroke="none" 
	d="
M42.364349,31.239925 
	C42.378532,31.009918 42.503723,30.884558 42.628914,30.759195 
	C42.577728,30.954321 42.526546,31.149446 42.364349,31.239925 
z"/>
<path fill="#252120" opacity="1.000000" stroke="none" 
	d="
M51.120544,75.882660 
	C51.039433,75.084435 51.393223,74.356880 52.179363,73.309288 
	C53.397629,72.660957 54.183544,72.332672 55.193985,71.895554 
	C55.699612,71.586502 55.894112,71.322487 56.001263,70.997414 
	C56.000519,71.000153 55.994503,71.000351 56.382500,71.001953 
	C58.510212,70.354141 60.249924,69.704727 61.989635,69.055313 
	C62.438774,69.036842 62.887913,69.018372 63.674259,69.002274 
	C61.091331,73.529099 57.200737,76.313934 51.120544,75.882660 
z"/>
<path fill="#252120" opacity="1.000000" stroke="none" 
	d="
M64.230011,68.911026 
	C64.092957,68.677322 64.279411,68.410713 64.784851,68.105453 
	C64.930107,68.341835 64.746666,68.612282 64.230011,68.911026 
z"/>
<path fill="#B4917E" opacity="1.000000" stroke="none" 
	d="
M47.981224,22.592211 
	C47.675365,23.097479 47.416500,23.293783 47.081856,23.767906 
	C46.627285,23.974854 46.199120,24.104824 45.987560,23.946093 
	C44.407967,22.760923 42.871231,21.518625 41.321064,20.294231 
	C42.049263,19.559511 43.316830,18.114685 43.424721,18.196636 
	C45.032402,19.417757 46.486748,20.840752 47.981224,22.592211 
z"/>
<path fill="#C38061" opacity="1.000000" stroke="none" 
	d="
M35.961617,53.491501 
	C35.904144,51.714043 35.960503,50.263287 36.035091,48.377861 
	C37.341953,48.089672 38.630585,48.236160 39.863937,48.970505 
	C39.551807,50.083294 39.294960,50.608223 39.063011,51.467606 
	C39.405136,52.565800 39.722363,53.329536 40.035149,54.326946 
	C40.030708,54.560616 40.082764,55.025131 40.019615,55.046066 
	C39.956463,55.066998 39.828117,55.031883 39.828117,55.031883 
	C38.577225,54.627323 37.326336,54.222763 35.961617,53.491501 
z"/>
<path fill="#29120B" opacity="1.000000" stroke="none" 
	d="
M46.173077,48.250168 
	C47.457745,48.938320 48.742416,49.626469 49.772232,50.665680 
	C48.906937,51.144394 48.296497,51.272041 47.365685,51.271671 
	C45.721874,50.763271 44.398434,50.382893 43.042747,49.734272 
	C42.823364,48.964100 42.636234,48.462166 42.449100,47.960232 
	C42.449100,47.960232 42.648510,47.670105 42.881763,47.720200 
	C43.432507,47.792442 43.741615,47.855618 44.190025,48.171864 
	C44.923798,48.355873 45.509884,48.327835 46.119186,48.293491 
	C46.142406,48.287186 46.173077,48.250168 46.173077,48.250168 
z"/>
<path fill="#F7C4B0" opacity="1.000000" stroke="none" 
	d="
M44.853729,41.105293 
	C44.968380,40.244007 45.144173,39.835953 45.319969,39.427895 
	C45.603271,40.352997 45.886574,41.278099 46.219131,42.544884 
	C46.177807,43.985615 46.087231,45.084667 45.757156,46.654888 
	C45.357128,47.080681 45.196606,47.035301 45.036079,46.989922 
	C44.995678,45.179455 44.955273,43.368992 44.853729,41.105293 
z"/>
<path fill="#DAA58B" opacity="1.000000" stroke="none" 
	d="
M42.125343,48.040611 
	C42.636234,48.462166 42.823364,48.964100 42.747238,49.827621 
	C41.968689,50.533844 41.453396,50.878471 40.622776,51.184387 
	C39.884335,51.141499 39.461224,51.137325 39.038109,51.133148 
	C39.294960,50.608223 39.551807,50.083294 39.915459,49.286064 
	C40.615372,48.716175 41.208477,48.418587 42.125343,48.040611 
z"/>
<path fill="#A15D46" opacity="1.000000" stroke="none" 
	d="
M44.631737,46.997742 
	C45.196606,47.035301 45.357128,47.080681 45.761421,47.069538 
	C46.026535,47.219883 46.047890,47.426754 46.121162,47.941895 
	C46.173077,48.250168 46.142406,48.287186 45.781075,48.208412 
	C44.960609,48.073029 44.501472,48.016422 44.042336,47.959812 
	C43.741615,47.855618 43.432507,47.792442 42.918922,47.638359 
	C43.224354,47.339474 43.725876,47.172516 44.631737,46.997742 
z"/>
<path fill="#210F09" opacity="1.000000" stroke="none" 
	d="
M44.364861,68.416557 
	C39.981075,67.544571 37.827393,64.271454 35.830894,60.330948 
	C38.282902,61.241077 40.903786,62.467541 44.102467,63.469559 
	C45.119911,63.241039 45.559551,63.236961 46.181622,63.423244 
	C47.015278,63.237278 47.666508,62.860947 48.625359,62.380020 
	C49.955685,61.518169 50.978390,60.760914 52.001095,60.003654 
	C53.009766,59.365540 53.949657,58.515579 55.049568,58.158447 
	C55.882137,57.888115 56.918903,58.246658 57.657745,58.865135 
	C54.307716,64.178879 52.287209,70.582771 44.364861,68.416557 
z"/>
<path fill="#A76E52" opacity="1.000000" stroke="none" 
	d="
M45.999195,63.232880 
	C45.559551,63.236961 45.119911,63.241039 44.352119,63.277328 
	C43.976215,62.890854 43.928459,62.472176 44.176285,61.555779 
	C44.954750,60.100586 45.437637,59.143105 46.202297,58.007023 
	C46.998096,57.148258 47.512123,56.468094 48.000061,55.496681 
	C47.978050,54.816105 47.982128,54.426773 48.393433,54.017067 
	C50.152561,54.046871 51.504463,54.097046 52.856369,54.147221 
	C52.988243,54.446625 53.193569,54.681915 53.695892,54.929810 
	C53.271008,56.438885 52.622578,57.871235 51.987621,59.653622 
	C50.978390,60.760914 49.955685,61.518169 48.292976,62.239716 
	C47.101711,62.546963 46.550453,62.889919 45.999195,63.232880 
z"/>
<path fill="#E09E7E" opacity="1.000000" stroke="none" 
	d="
M45.920525,58.185623 
	C45.437637,59.143105 44.954750,60.100586 44.159599,61.240913 
	C42.536819,59.547287 41.226315,57.670818 39.871964,55.413116 
	C39.828117,55.031883 39.956463,55.066998 40.330891,55.037155 
	C41.123547,55.010483 41.541779,55.013653 42.010696,55.341881 
	C43.086555,56.410954 44.111725,57.154976 45.334869,57.965004 
	C45.532841,58.031017 45.920525,58.185623 45.920525,58.185623 
z"/>
<path fill="#171515" opacity="1.000000" stroke="none" 
	d="
M62.126743,68.726990 
	C60.249924,69.704727 58.510212,70.354141 56.513130,70.723877 
	C57.148159,69.631721 58.040550,68.819252 58.932945,68.006775 
	C60.097931,67.096436 61.262920,66.186096 62.712952,65.133408 
	C62.753277,66.126923 62.508564,67.262794 62.126743,68.726990 
z"/>
<path fill="#171515" opacity="1.000000" stroke="none" 
	d="
M63.280342,64.967590 
	C63.167263,64.445953 63.344074,63.893524 63.757362,63.163368 
	C63.852642,63.636028 63.711441,64.286415 63.280342,64.967590 
z"/>
<path fill="#522B1B" opacity="1.000000" stroke="none" 
	d="
M53.115101,53.950146 
	C51.504463,54.097046 50.152561,54.046871 48.408070,53.996002 
	C48.015484,53.995312 48.032440,53.947529 48.007168,53.624302 
	C47.883282,52.667278 47.784672,52.033485 47.686058,51.399689 
	C48.296497,51.272041 48.906937,51.144394 49.987190,50.953117 
	C51.507500,51.074245 52.557995,51.258999 53.817215,51.702667 
	C53.808567,52.558746 53.591202,53.155910 53.115101,53.950146 
z"/>
<path fill="#411D0E" opacity="1.000000" stroke="none" 
	d="
M58.952873,67.572670 
	C58.040550,68.819252 57.148159,69.631721 56.125134,70.722275 
	C55.994503,71.000351 56.000519,71.000153 55.780556,71.110214 
	C55.289467,71.425781 55.092422,71.687157 54.969456,72.004387 
	C54.183544,72.332672 53.397629,72.660957 52.292023,73.027084 
	C49.520512,71.735146 47.068691,70.405373 44.490868,68.746078 
	C52.287209,70.582771 54.307716,64.178879 57.712799,59.196968 
	C58.309006,59.488415 58.643101,59.987835 59.024494,60.800476 
	C59.038795,63.121990 59.005798,65.130280 58.952873,67.572670 
z"/>
<path fill="#171515" opacity="1.000000" stroke="none" 
	d="
M55.193985,71.895554 
	C55.092422,71.687157 55.289467,71.425781 55.781303,71.107475 
	C55.894112,71.322487 55.699612,71.586502 55.193985,71.895554 
z"/>
<path fill="#D68B6C" opacity="1.000000" stroke="none" 
	d="
M41.960007,55.016823 
	C41.541779,55.013653 41.123547,55.010483 40.394043,55.016220 
	C40.082764,55.025131 40.030708,54.560616 40.006180,54.289604 
	C39.981655,54.018593 39.964298,53.925900 40.411232,53.965885 
	C43.249592,53.986423 45.641018,53.966976 48.032440,53.947529 
	C48.032440,53.947529 48.015484,53.995312 48.000847,54.016376 
	C47.982128,54.426773 47.978050,54.816105 47.612778,55.481735 
	C46.476948,55.757015 45.702305,55.755997 44.699532,55.537960 
	C43.634266,55.219570 42.797138,55.118195 41.960007,55.016823 
z"/>
<path fill="#5F3924" opacity="1.000000" stroke="none" 
	d="
M39.063011,51.467606 
	C39.461224,51.137325 39.884335,51.141499 40.599266,51.474075 
	C40.582153,52.510284 40.273224,53.218090 39.964294,53.925900 
	C39.964298,53.925900 39.981655,54.018593 40.010620,54.055935 
	C39.722363,53.329536 39.405136,52.565800 39.063011,51.467606 
z"/>
<path fill="#8F533F" opacity="1.000000" stroke="none" 
	d="
M40.411232,53.965885 
	C40.273224,53.218090 40.582153,52.510284 40.914593,51.512787 
	C41.453396,50.878471 41.968689,50.533844 42.779488,50.095863 
	C44.398434,50.382893 45.721874,50.763271 47.365685,51.271671 
	C47.784672,52.033485 47.883282,52.667278 48.007168,53.624302 
	C45.641018,53.966976 43.249592,53.986423 40.411232,53.965885 
z"/>
<path fill="#803E2A" opacity="1.000000" stroke="none" 
	d="
M44.190025,48.171864 
	C44.501472,48.016422 44.960609,48.073029 45.757858,48.214718 
	C45.509884,48.327835 44.923798,48.355873 44.190025,48.171864 
z"/>
<path fill="#664533" opacity="1.000000" stroke="none" 
	d="
M46.181622,63.423244 
	C46.550453,62.889919 47.101711,62.546963 47.985352,62.344311 
	C47.666508,62.860947 47.015278,63.237278 46.181622,63.423244 
z"/>
<path fill="#472A1C" opacity="1.000000" stroke="none" 
	d="
M44.927662,55.754974 
	C45.702305,55.755997 46.476948,55.757015 47.638870,55.772980 
	C47.512123,56.468094 46.998096,57.148258 46.202297,58.007023 
	C45.920525,58.185623 45.532841,58.031017 45.287426,57.609062 
	C45.003895,56.709728 44.965778,56.232353 44.927662,55.754974 
z"/>
<path fill="#A76E52" opacity="1.000000" stroke="none" 
	d="
M44.699532,55.537956 
	C44.965778,56.232353 45.003895,56.709728 45.089455,57.543053 
	C44.111725,57.154976 43.086555,56.410954 42.010696,55.341877 
	C42.797138,55.118195 43.634266,55.219570 44.699532,55.537956 
z"/>
</svg>