<?xml version="1.0" encoding="UTF-8"?><svg xmlns="http://www.w3.org/2000/svg" width="72" height="72" viewBox="0 0 72 72" version="1.2" baseProfile="tiny-ps"><title>TheChels Logo</title><path d="M 29.994 3.876 C 10.967 10.106, 5.136 31.745, 18.895 45.066 C 33.930 59.621, 58.502 50.188, 59.829 29.351 C 60.510 18.650, 56.003 10.593, 46.675 5.834 C 42.309 3.607, 33.849 2.614, 29.994 3.876 M 34.079 5.583 C 34.033 6.804, 34.621 7.667, 35.500 7.667 C 36.358 7.667, 36.993 6.775, 36.985 5.583 C 36.973 4.026, 36.751 3.844, 36.106 4.863 C 35.377 6.014, 35.158 6.014, 34.700 4.863 C 34.369 4.031, 34.127 4.311, 34.079 5.583 M 27.259 5.659 C 26.306 6.044, 26.348 6.491, 27.438 7.580 C 29.307 9.450, 29.571 9.378, 29.571 7 C 29.571 4.934, 29.359 4.811, 27.259 5.659 M 41.339 6.560 C 40.465 8.836, 41.829 9.600, 43.601 7.827 C 45.006 6.422, 45 6.214, 43.540 5.654 C 42.569 5.281, 41.691 5.643, 41.339 6.560 M 25.990 12.250 C 20.626 15.901, 18.676 19.328, 18.197 25.948 C 17.832 31.004, 18.153 32.585, 20.285 36.223 C 23.945 42.468, 29.545 45.346, 36.991 44.807 C 47.148 44.072, 53.422 37.300, 53.325 27.176 C 53.265 20.845, 49.610 14.829, 44.016 11.853 C 38.949 9.158, 30.251 9.350, 25.990 12.250 M 37.655 15.458 C 36.741 17.838, 37.948 22, 39.552 22 C 41.301 22, 44.099 17.969, 43.275 16.636 C 42.870 15.981, 42.468 16.096, 42.184 16.949 C 41.861 17.916, 41.249 17.655, 40.021 16.027 C 38.499 14.010, 38.235 13.946, 37.655 15.458 M 34 18.025 C 34 18.588, 32.763 19.542, 31.250 20.144 C 29.352 20.899, 28.965 21.381, 30 21.698 C 34.272 23.009, 34.165 22.908, 32.817 24.351 C 31.900 25.333, 31.071 25.437, 29.917 24.716 C 28.007 23.524, 22.649 24.623, 23.518 26.029 C 23.848 26.563, 25.906 27, 28.090 27 C 30.714 27, 32.260 27.514, 32.643 28.513 C 33.516 30.786, 31.129 33, 27.806 33 C 25.125 33, 25 33.143, 26.429 34.571 C 27.293 35.436, 28 36.786, 28 37.571 C 28 39.803, 29.012 39.306, 33.233 35 C 36.637 31.527, 37.737 31, 41.577 31 C 44.010 31, 46 30.550, 46 30 C 46 29.450, 44.750 29, 43.223 29 C 40.324 29, 36 26.571, 36 24.943 C 36 24.424, 37.013 23.993, 38.250 23.985 C 40.456 23.971, 40.451 23.945, 38 22.685 C 36.424 21.874, 35.529 20.586, 35.579 19.200 C 35.623 17.990, 35.286 17, 34.829 17 C 34.373 17, 34 17.461, 34 18.025 M 44 20.359 C 43.175 22.082, 41.500 23.978, 40.278 24.574 C 38.580 25.401, 38.332 25.932, 39.228 26.828 C 40.649 28.249, 44.942 28.336, 47 26.985 C 48.264 26.155, 48.282 25.859, 47.113 25.106 C 46.277 24.567, 45.919 23.204, 46.212 21.671 C 46.974 17.687, 45.655 16.905, 44 20.359 M 12.364 26.493 C 12.018 27.396, 12.214 28.614, 12.800 29.200 C 14.324 30.724, 17.210 29.331, 16.812 27.265 C 16.369 24.963, 13.165 24.407, 12.364 26.493 M 55.232 27.965 C 55.632 30.042, 58.392 29.920, 58.799 27.807 C 59.028 26.618, 58.502 26.162, 57.030 26.273 C 55.733 26.370, 55.049 27.014, 55.232 27.965 M 26 30.076 C 23.339 31.591, 23.099 31.915, 25 31.427 C 26.375 31.074, 28.159 30.159, 28.964 29.393 C 30.930 27.523, 30.183 27.695, 26 30.076 M 46.500 32.053 C 45.400 32.494, 43.062 32.617, 41.304 32.327 C 38.640 31.886, 37.518 32.372, 34.554 35.250 C 31.168 38.539, 29.858 42, 32 42 C 32.550 42, 33 41.495, 33 40.878 C 33 40.102, 33.464 40.140, 34.500 41 C 35.742 42.031, 36.003 41.923, 36.015 40.372 C 36.024 39.343, 36.503 37.825, 37.081 37 C 37.903 35.826, 37.994 35.989, 37.498 37.750 C 37.126 39.073, 37.305 40, 37.933 40 C 38.520 40, 39 39.305, 39 38.455 C 39 37.240, 39.725 37.045, 42.385 37.544 C 44.425 37.927, 46.039 37.746, 46.444 37.090 C 46.867 36.407, 46.069 35.974, 44.309 35.930 C 42.764 35.891, 40.600 35.461, 39.500 34.974 C 38.097 34.352, 38.693 34.245, 41.500 34.614 C 44.183 34.967, 46.158 34.650, 47.498 33.652 C 49.889 31.872, 49.300 30.930, 46.500 32.053 M 21.074 43.411 C 20.253 44.401, 20.223 45.020, 20.976 45.485 C 21.567 45.850, 21.926 45.553, 21.775 44.824 C 21.624 44.096, 22.096 43.624, 22.824 43.775 C 23.553 43.926, 23.864 43.588, 23.515 43.025 C 22.692 41.692, 22.472 41.727, 21.074 43.411 M 48.307 43.303 C 48.531 45.399, 50.287 45.767, 50.801 43.825 C 51.067 42.823, 50.915 42.840, 50.177 43.895 C 49.381 45.035, 49.103 44.943, 48.659 43.395 C 48.195 41.779, 48.143 41.765, 48.307 43.303 M 27 47.107 C 27 48.401, 29.837 48.868, 30.304 47.651 C 30.571 46.954, 29.962 46.429, 28.886 46.429 C 27.849 46.429, 27 46.734, 27 47.107 M 41 46.902 C 41 47.940, 42.902 49.443, 43.466 48.850 C 43.649 48.658, 43.169 47.920, 42.399 47.211 C 41.630 46.501, 41 46.362, 41 46.902 M 34.469 48.050 C 33.519 49.588, 34.820 50.580, 36.104 49.296 C 36.822 48.578, 36.839 48.019, 36.156 47.597 C 35.596 47.251, 34.837 47.455, 34.469 48.050" stroke="none" fill="#000000" fill-rule="evenodd"></path></svg>